<?xml version="1.0" encoding="utf-8"?>
<!-- Generator: Adobe Illustrator 25.3.1, SVG Export Plug-In . SVG Version: 6.00 Build 0)  -->
<svg version="1.1" id="Layer_1" xmlns="http://www.w3.org/2000/svg" xmlns:xlink="http://www.w3.org/1999/xlink" x="0px" y="0px"
	 viewBox="0 0 457 381" style="enable-background:new 0 0 457 381;" xml:space="preserve">
<style type="text/css">
	.st0{fill:#EDE4D6;}
	.st1{fill:#ECD9BB;}
	.st2{fill:#4982C3;}
	.st3{opacity:0.8;}
	.st4{fill:#7C7C7C;}
	.st5{fill:#FFFFFF;}
	.st6{fill:#F7DDA4;}
	.st7{fill:#567582;}
	.st8{fill:#464D5C;}
	.st9{fill:#B89068;}
	.st10{fill:#13231D;}
	.st11{fill:#36846B;}
	.st12{stroke:#000000;stroke-width:3;stroke-miterlimit:10;}
	.st13{font-family:'CaviarDreams-Bold';}
	.st14{font-size:89.8877px;}
	.st15{font-size:92.045px;}
	.st16{fill:#77C6A9;}
</style>
<rect x="221" y="457" class="st0" width="1153" height="2501"/>
<g>
	<rect x="238.35" y="476" class="st1" width="1124.65" height="343"/>
</g>
<g>
	<rect x="-1194" y="819" class="st2" width="1124.65" height="343"/>
</g>
<g class="st3">
	<rect x="238" y="819.03" class="st4" width="1125" height="379.03"/>
</g>
<text transform="matrix(0.9863 0 0 1 581.9888 1054.3008)" class="st13" style="font-size:155.904px;">BANER</text>
<path class="st3" d="M1318.33,758.06H349c-9.94,0-18-8.06-18-18V694c0-9.94,8.06-18,18-18h969.33c9.94,0,18,8.06,18,18v46.07
	C1336.33,750.01,1328.28,758.06,1318.33,758.06z"/>
<text transform="matrix(1 0 0 1 420.084 730.5835)" style="opacity:0.8;fill:#FFFFFF; font-family:'MyriadPro-Regular'; font-size:46.1694px;">Serch</text>
<g class="st3">
	<g>
		<path class="st5" d="M393.09,710.93c-0.1,3.84-1.52,7.61-4.1,10.57c-2.55,2.97-6.45,4.97-10.57,5.1c-4.1,0.15-8.31-1.4-11.37-4.3
			c-3.07-2.88-4.95-7.07-5.05-11.37c-0.15-4.3,1.46-8.7,4.47-11.95c3-3.26,7.51-5.15,11.95-4.97c2.21,0.08,4.4,0.66,6.32,1.68
			c1.92,1.02,3.56,2.45,4.83,4.1C392.09,703.12,393.18,707.11,393.09,710.93z M392.59,710.93c-0.06-1.86-0.55-3.69-1.42-5.28
			c-0.88-1.59-2.1-2.95-3.5-3.97c-2.84-2.04-6.14-2.8-9.25-2.67c-3.13,0.15-6.11,1.37-8.45,3.47c-2.36,2.08-3.84,5.18-3.97,8.45
			c-0.12,3.26,1.1,6.58,3.4,9.02c2.26,2.47,5.56,4.02,9.02,4.15c3.44,0.15,7.05-0.95,9.83-3.34
			C391.03,718.39,392.71,714.66,392.59,710.93z"/>
	</g>
	<g>
		<path class="st5" d="M387.81,721.85c1.57,1.01,3.08,2.1,4.59,3.17l2.23,1.65l2.18,1.7c0.72,0.57,1.51,1.08,2.28,1.6
			c0.76,0.53,1.42,1.17,1.96,1.92c1.06,1.52,1.97,3.2,2.29,5.47l-0.35,0.35c-2.27-0.32-3.95-1.23-5.47-2.29
			c-0.75-0.54-1.39-1.2-1.92-1.96c-0.53-0.77-1.03-1.55-1.6-2.28l-1.7-2.18l-1.65-2.23c-1.08-1.51-2.16-3.01-3.17-4.59
			L387.81,721.85z"/>
	</g>
</g>
<g class="st3">
	<g>
		<path d="M1230.89,523.56c22.09-0.05,41.73,18.64,40.73,42.81c-0.96,23.35-20.65,40.87-43.72,39.51
			c-22.13-1.3-39.64-20.3-38.63-42.87C1190.31,539.83,1209.61,523.19,1230.89,523.56z M1204.98,590.16
			c2.64-7.44,7.41-12.91,14.61-16.07c7.2-3.16,14.51-3.1,21.61,0.22c7.07,3.31,11.79,8.86,14.27,16.31c8.15-7.57,14.38-22,9.1-37.49
			c-4.33-12.74-16.9-25.18-35.94-24.4c-15.2,0.62-28.06,10.93-32.58,25.11C1191.32,568.67,1197.11,582.81,1204.98,590.16z"/>
		<path d="M1230.13,567.43c-6.27,0.5-13.88-4.68-15.12-12.75c-1.29-8.37,3.76-15.46,11.27-17.41c4.71-1.22,9.13-0.39,13.03,2.55
			c4.46,3.37,6.42,7.92,6.14,13.49c-0.28,5.77-4.56,12.23-12.23,13.89C1232.22,567.41,1231.17,567.36,1230.13,567.43z"/>
	</g>
</g>
<circle class="st3" cx="480.56" cy="1281.02" r="53.01"/>
<circle class="st6" cx="-472.95" cy="1747.16" r="53.01"/>
<g>
	<circle class="st7" cx="-473.14" cy="1853.26" r="53.01"/>
</g>
<circle class="st8" cx="-473.14" cy="1959.28" r="53.01"/>
<circle class="st9" cx="-473.14" cy="2065.3" r="53.01"/>
<circle class="st3" cx="644.57" cy="1281.02" r="53.01"/>
<circle class="st3" cx="808.29" cy="1281.02" r="53.01"/>
<circle class="st3" cx="963.81" cy="1281.02" r="53.01"/>
<circle class="st3" cx="1136.02" cy="1281.02" r="53.01"/>
<text transform="matrix(1 0 0 1 432.8379 1358.4131)" style="font-family:'MicrosoftNewTaiLue'; font-size:19.8471px;">Category 1</text>
<text transform="matrix(1 0 0 1 596.8486 1358.4131)" style="font-family:'MicrosoftNewTaiLue'; font-size:19.8471px;">Category 2</text>
<text transform="matrix(1 0 0 1 760.5674 1358.4131)" style="font-family:'MicrosoftNewTaiLue'; font-size:19.8471px;">Category 3</text>
<text transform="matrix(1 0 0 1 916.085 1358.4131)" style="font-family:'MicrosoftNewTaiLue'; font-size:19.8471px;">Category 4</text>
<text transform="matrix(1 0 0 1 1088.2969 1358.4131)" style="font-family:'MicrosoftNewTaiLue'; font-size:19.8471px;">Category 5</text>
<rect x="242" y="2641.61" class="st10" width="1125" height="270.31"/>
<text transform="matrix(1 0 0 1 335.0889 2725.3916)"><tspan x="0" y="0" class="st11" style="font-family:'CaviarDreams'; font-size:32.8209px;">Atención al cliente:</tspan><tspan x="0" y="39.38" class="st11" style="font-family:'CaviarDreams'; font-size:32.8209px;">0800 NOROMPALOSHUEVOS</tspan><tspan x="0" y="78.77" class="st11" style="font-family:'CaviarDreams'; font-size:32.8209px;">LU-VI de 09:00 a 18:00</tspan><tspan x="0" y="118.16" class="st11" style="font-family:'CaviarDreams'; font-size:32.8209px;">SA de 9:00 a 13:00</tspan></text>
<text transform="matrix(1 0 0 1 876.3232 2725.3916)"><tspan x="0" y="0" class="st11" style="font-family:'CaviarDreams'; font-size:32.8209px;">Venta telefónica:</tspan><tspan x="0" y="39.38" class="st11" style="font-family:'CaviarDreams'; font-size:32.8209px;">0810 333 8700</tspan><tspan x="0" y="78.77" class="st11" style="font-family:'CaviarDreams'; font-size:32.8209px;">LU-VI de 8:00 a 20:00</tspan><tspan x="0" y="118.16" class="st11" style="font-family:'CaviarDreams'; font-size:32.8209px;">SA-DO-Feriados 9:00 a 21:00</tspan></text>
<path class="st11" d="M571.74,1892H280.26c-9.94,0-18-8.06-18-18v-291.48c0-9.94,8.06-18,18-18h291.48c9.94,0,18,8.06,18,18V1874
	C589.74,1883.94,581.68,1892,571.74,1892z"/>
<path class="st11" d="M950.04,1892H658.56c-9.94,0-18-8.06-18-18v-291.48c0-9.94,8.06-18,18-18h291.48c9.94,0,18,8.06,18,18V1874
	C968.04,1883.94,959.98,1892,950.04,1892z"/>
<path class="st11" d="M1321.99,1892h-291.48c-9.94,0-18-8.06-18-18v-291.48c0-9.94,8.06-18,18-18h291.48c9.94,0,18,8.06,18,18V1874
	C1339.99,1883.94,1331.93,1892,1321.99,1892z"/>
<line class="st12" x1="238.35" y1="1398.72" x2="1363" y2="1398.72"/>
<line class="st12" x1="238.35" y1="2185.32" x2="1363" y2="2185.32"/>
<text transform="matrix(1 0 0 1 457.688 1501.6787)" class="st11 st13" style="font-size:77.3605px;">Ofertas Pitucas</text>
<g>
	<text transform="matrix(1 0 0 1 357.4746 2039.0059)" class="st11 st13" style="font-size:77.3605px;">ver más pituqueadas</text>
</g>
<g>
	<g>
		<path class="st5" d="M-509.97,362.03v107.45h-13.87V362.03H-509.97z"/>
	</g>
	<g>
		<path class="st5" d="M-545.91,452.66c6.22,3.83,15.3,7.01,24.87,7.01c14.19,0,22.48-7.49,22.48-18.33
			c0-10.04-5.74-15.78-20.25-21.36c-17.54-6.22-28.38-15.3-28.38-30.45c0-16.74,13.29-26.25,34.18-26.25c11,0,19.82,5.57,24.6,8.29
			l-4.1,5.38c-3.51-1.91-10.68-5.1-20.41-5.1c-14.67,0-20.25,8.77-20.25,16.1c0,10.04,6.54,14.99,21.36,20.72
			c18.17,7.01,27.42,15.78,27.42,31.56c0,16.58-11.82,28.75-37.17,28.75c-10.36,0-20.87-4.96-26.61-8.79L-545.91,452.66z"/>
	</g>
	<g>
		<path class="st5" d="M-467.8,414.64c0,36.98-22.48,56.59-49.9,56.59c-28.38,0-48.3-22-48.3-54.52c0-34.11,21.2-56.43,49.9-56.43
			C-486.77,360.28-467.8,382.75-467.8,414.64z M-551.17,416.39c0,22.96,12.43,43.52,34.27,43.52c22,0,34.43-20.25,34.43-44.64
			c0-21.36-11.16-43.68-34.27-43.68C-539.7,371.6-551.17,392.8-551.17,416.39z"/>
	</g>
</g>
<g>
	<rect x="443" y="572" width="82" height="13"/>
	<rect x="443" y="553" width="82" height="13"/>
	<rect x="443" y="535" width="82" height="13"/>
</g>
<path class="st11" d="M32.33,2447.36h-44.96c-15.19,0-27.5-12.31-27.5-27.5v-44.96c0-15.19,12.31-27.5,27.5-27.5h44.96
	c15.19,0,27.5,12.31,27.5,27.5v44.96C59.83,2435.05,47.52,2447.36,32.33,2447.36z"/>
<g>
	<g>
		<g>
			<path class="st11" d="M287.36,590.85c-1.96,2.68-3.08,5.8-3.64,8.95c-0.26,1.58-0.42,3.17-0.37,4.77c0.02,0.8-0.01,1.59,0.1,2.38
				c0.1,0.79,0.11,1.59,0.28,2.37c0.15,0.78,0.27,1.57,0.43,2.35l0.59,2.32c0.19,0.77,0.5,1.52,0.74,2.28
				c0.26,0.76,0.51,1.52,0.81,2.23c0.29,0.72,0.63,1.42,1,2.2c0.36,0.77,0.7,1.59,0.99,2.41c0.59,1.63,1.04,3.26,1.43,4.89
				l-1.12-1.09c2.7,0.58,5.6,0.86,8.43,1.07c2.85,0.18,5.71,0.15,8.56-0.05c2.84-0.25,5.66-0.73,8.43-1.49
				c2.76-0.79,5.39-1.98,7.94-3.44c-2.18,1.96-4.73,3.57-7.48,4.76c-2.76,1.12-5.67,1.95-8.62,2.41c-2.96,0.46-5.95,0.63-8.94,0.57
				c-1.49-0.02-2.99-0.1-4.47-0.27c-1.5-0.15-2.95-0.35-4.49-0.66l-0.88-0.17l-0.24-0.92c-0.42-1.57-0.84-3.13-1.34-4.62
				c-0.48-1.48-1.21-2.84-1.88-4.51c-1.11-3.26-2.04-6.53-2.3-9.97c-0.12-0.84-0.08-1.71-0.11-2.56c-0.05-0.85,0.04-1.71,0.09-2.57
				c0.13-1.71,0.48-3.39,0.93-5.04C283.24,596.2,284.86,593.07,287.36,590.85z"/>
		</g>
		<g>
			<path class="st11" d="M302.12,597.14c-1.78,0.25-3.64,0.02-5.4-0.46c-0.45-0.09-0.88-0.26-1.31-0.41
				c-0.43-0.16-0.87-0.29-1.29-0.47c-0.82-0.4-1.7-0.72-2.48-1.21c-3.21-1.79-6.08-4.19-8.53-6.91l-0.94-1.01l-0.85-1.08l-1.7-2.16
				c-1.04-1.5-2.07-3.01-3.01-4.57c-0.87-1.59-1.8-3.16-2.63-4.78c-0.79-1.63-1.53-3.29-2.29-4.93l-0.36-0.78l0.52-0.67
				c1.89-2.41,3.95-4.39,6.24-6.23c2.26-1.84,4.74-3.41,7.33-4.71c1.28-0.7,2.65-1.2,3.99-1.74c1.39-0.42,2.74-0.96,4.17-1.2
				c2.8-0.71,5.7-0.84,8.53-0.78c-2.8,0.52-5.56,1.04-8.16,2.06c-1.32,0.42-2.57,1.05-3.85,1.58c-1.22,0.66-2.46,1.25-3.63,1.99
				c-2.36,1.42-4.58,3.06-6.65,4.86l-1.51,1.4c-0.48,0.49-0.97,0.97-1.44,1.46c-0.94,0.97-1.88,2.03-2.64,3.04l0.16-1.45
				c0.75,1.59,1.53,3.17,2.26,4.76c0.78,1.57,1.65,3.09,2.47,4.64c0.42,0.77,0.92,1.48,1.37,2.23c0.46,0.74,0.9,1.5,1.38,2.23
				l1.52,2.12l0.76,1.06l0.84,1c2.14,2.75,4.66,5.18,7.48,7.2c0.69,0.53,1.46,0.93,2.19,1.41c0.77,0.4,1.54,0.83,2.35,1.15
				C298.62,596.51,300.33,597.03,302.12,597.14z"/>
		</g>
		<g>
			<path class="st11" d="M284.68,559.54c-1.19-0.38-2.12-1.35-2.88-2.32c-0.41-0.48-0.71-1.03-1.07-1.55
				c-0.3-0.55-0.62-1.09-0.9-1.65c-1.1-2.25-1.85-4.63-2.48-7.03c-0.29-1.2-0.61-2.4-0.8-3.62c-0.21-1.21-0.46-2.43-0.61-3.65
				c-0.34-2.44-0.53-4.89-0.73-7.34l-0.07-0.92l0.79-0.45c2.17-1.24,4.3-2.28,6.55-3.19c2.25-0.88,4.53-1.68,6.88-2.24
				c2.33-0.62,4.74-0.96,7.13-1.15c2.4-0.16,4.82-0.04,7.17,0.37c-2.38,0.25-4.69,0.53-6.96,1.08c-2.27,0.53-4.5,1.16-6.68,1.94
				c-2.17,0.8-4.33,1.62-6.42,2.61c-2.08,0.96-4.2,2-6.1,3.15l0.71-1.37c0.17,2.4,0.31,4.8,0.57,7.18c0.18,2.39,0.54,4.76,0.88,7.12
				c0.41,2.34,0.82,4.71,1.55,6.96c0.17,0.57,0.38,1.12,0.57,1.68c0.24,0.53,0.45,1.1,0.72,1.62c0.26,0.53,0.56,1.04,0.91,1.52
				C283.76,558.77,284.15,559.23,284.68,559.54z"/>
		</g>
		<g>
			<path class="st11" d="M304.74,526.32c-1.02-1.41-1.69-3.06-2.2-4.74c-0.47-1.7-0.77-3.47-0.78-5.26
				c-0.04-1.79,0.13-3.6,0.57-5.35c0.17-0.89,0.49-1.73,0.77-2.59c0.3-0.85,0.7-1.66,1.06-2.48l0.31-0.71l0.83-0.1
				c1.71-0.21,3.37-0.35,5.05-0.42c1.68-0.07,3.37-0.09,5.06,0.01c1.69,0.08,3.37,0.24,5.05,0.53c1.67,0.32,3.33,0.7,4.89,1.37
				c-1.69-0.03-3.34-0.01-4.98,0.09c-1.64,0.06-3.28,0.22-4.91,0.34l-4.89,0.49c-1.62,0.18-3.27,0.35-4.86,0.57l1.14-0.81
				c-0.67,1.45-1.32,2.92-1.75,4.46c-0.5,1.52-0.76,3.11-0.98,4.72c-0.19,1.61-0.22,3.25-0.11,4.9
				C304.08,522.98,304.34,524.64,304.74,526.32z"/>
		</g>
		<g>
			<path class="st11" d="M314.13,527.11c-0.4-1.41-0.47-2.92-0.35-4.4c0.01-0.75,0.18-1.48,0.28-2.22c0.17-0.72,0.33-1.46,0.53-2.18
				c0.86-2.87,2.22-5.59,3.91-8.05c0.8-1.27,1.75-2.42,2.68-3.6c0.96-1.14,2.01-2.2,3.02-3.29c1.08-1.01,2.15-2.05,3.28-3.02
				l3.47-2.78l0.52-0.42l0.71,0.17c3.29,0.79,6.41,1.86,9.53,3.02c3.1,1.21,6.15,2.57,9.07,4.22c2.9,1.66,5.72,3.56,8.09,5.99
				c1.17,1.22,2.24,2.56,3.04,4.06c0.8,1.49,1.3,3.16,1.31,4.81c-0.74-3.25-2.94-5.75-5.39-7.73c-1.22-1.01-2.55-1.91-3.94-2.71
				c-1.37-0.83-2.78-1.59-4.24-2.27c-2.89-1.39-5.89-2.59-8.94-3.66c-3.03-1.1-6.17-2.02-9.23-2.85l1.23-0.25l-3.38,2.63l-3.23,2.78
				c-2.04,1.96-4.06,3.97-5.78,6.21c-0.91,1.09-1.65,2.29-2.45,3.46l-1.05,1.84c-0.33,0.63-0.6,1.28-0.92,1.91
				c-0.28,0.65-0.52,1.32-0.78,1.98c-0.18,0.68-0.44,1.36-0.57,2.06C314.23,524.21,314.02,525.65,314.13,527.11z"/>
		</g>
		<g>
			<path class="st11" d="M358.78,511.52c0.9-1.35,2.16-2.44,3.53-3.33c1.37-0.9,2.89-1.59,4.48-2.06c1.59-0.43,3.25-0.76,4.9-0.76
				c0.83-0.07,1.65,0.04,2.48,0.07c0.82,0.08,1.63,0.22,2.44,0.36l-0.66,0.05c0.22-0.07,0.5-0.09,0.74-0.04l0.11,0.03l0.04,0.01
				c0.06,0.02,0.11,0.04,0.17,0.07c0.05,0.02,0.11,0.06,0.15,0.08l0.04,0.03l0.15,0.12l0.14,0.13c0.08,0.08,0.12,0.13,0.17,0.2
				l0.25,0.32c0.15,0.2,0.28,0.4,0.41,0.6c0.25,0.4,0.5,0.79,0.72,1.19c0.45,0.8,0.89,1.59,1.28,2.41c0.8,1.63,1.51,3.3,2.07,5.07
				c-1.34-1.28-2.53-2.64-3.69-4.01c-0.59-0.68-1.14-1.38-1.7-2.06l-0.83-1.01l-0.41-0.46l-0.18-0.19
				c-0.02-0.01-0.06-0.06-0.06-0.05c0.01,0.01,0,0,0.02,0.02c0.03,0.02,0.06,0.05,0.09,0.07l0.02,0.01
				c0.03,0.02,0.09,0.05,0.13,0.08c0.05,0.02,0.1,0.04,0.15,0.06l0.15,0.04c0.23,0.05,0.51,0.04,0.73-0.04l-0.66,0.05
				c-1.48-0.13-2.94-0.25-4.4-0.22c-1.47-0.01-2.92,0.16-4.37,0.36c-1.45,0.23-2.88,0.59-4.33,1.03
				C361.63,510.22,360.2,510.77,358.78,511.52z"/>
		</g>
		<g>
			<path class="st11" d="M306.54,559.54c-2.39-1.72-4.34-4.06-5.87-6.64c-1.52-2.58-2.65-5.45-3.22-8.44
				c-0.17-0.74-0.21-1.5-0.32-2.26l-0.14-1.13l-0.03-1.14c-0.02-0.76-0.04-1.52-0.02-2.28l0.22-2.27l0.11-1.13l0.22-1.11
				c0.15-0.74,0.3-1.49,0.47-2.22c0.39-1.46,0.91-2.87,1.37-4.31l0.28-0.88l0.97-0.06c2.07-0.13,4.08-0.09,6.12-0.05
				c2.03,0.05,4.07,0.24,6.1,0.5c2.02,0.31,4.06,0.67,6.01,1.38c0.97,0.35,1.94,0.77,2.81,1.39c0.86,0.59,1.62,1.48,1.78,2.49
				c-0.41-0.95-1.26-1.5-2.12-1.89c-0.88-0.38-1.83-0.61-2.79-0.79c-1.92-0.33-3.89-0.47-5.86-0.51c-1.97-0.08-3.95-0.01-5.93,0.04
				c-1.97,0.05-3.97,0.2-5.91,0.33l1.25-0.94c-0.39,1.35-0.86,2.68-1.2,4.03c-0.13,0.69-0.28,1.37-0.43,2.05l-0.23,1.02l-0.12,1.04
				l-0.25,2.07l-0.06,2.08l-0.03,1.04l0.07,1.04c0.06,0.69,0.05,1.39,0.17,2.08c0.3,2.77,1.09,5.48,2.16,8.1
				C303.25,554.77,304.69,557.27,306.54,559.54z"/>
		</g>
		<g>
			<path class="st11" d="M301.37,580.82c0,2.4,0.3,4.77,0.71,7.09c0.43,2.32,0.98,4.61,1.69,6.84c0.72,2.23,1.54,4.42,2.52,6.54
				c0.44,1.08,1.02,2.1,1.53,3.14l1.7,3.06l-0.62-0.58c1.31,0.57,2.88,1.06,4.38,1.45c1.53,0.38,3.06,0.74,4.63,0.96
				c3.13,0.44,6.3,0.7,9.49,0.57c0.8,0,1.59-0.09,2.39-0.12c0.8-0.04,1.6-0.1,2.39-0.22c0.79-0.11,1.59-0.2,2.39-0.29l2.37-0.44
				c1.6-0.25,3.15-0.71,4.73-1.07c0.8-0.16,1.56-0.46,2.35-0.68l2.37-0.69c-1.44,0.77-2.89,1.58-4.4,2.26l-2.3,0.94
				c-0.39,0.15-0.77,0.32-1.16,0.46l-1.19,0.37l-2.39,0.73c-0.81,0.19-1.62,0.37-2.44,0.55c-0.81,0.2-1.64,0.33-2.47,0.44
				c-0.83,0.1-1.66,0.27-2.49,0.33c-3.34,0.29-6.73,0.25-10.07-0.22c-1.67-0.21-3.33-0.55-4.98-0.96c-1.65-0.47-3.21-0.96-4.89-1.73
				l-0.42-0.19l-0.2-0.38c-0.57-1.09-1.19-2.15-1.7-3.26c-0.49-1.13-1.04-2.22-1.45-3.38l-0.66-1.72l-0.55-1.76
				c-0.38-1.16-0.63-2.37-0.93-3.55c-0.5-2.39-0.83-4.82-0.91-7.25C300.73,585.62,300.84,583.17,301.37,580.82z"/>
		</g>
		<g>
			<path class="st11" d="M349.29,604.25c2.51,1.23,5.24,1.8,7.95,2.07c2.72,0.25,5.44,0.08,8.1-0.32l1.99-0.36
				c0.66-0.15,1.31-0.34,1.97-0.5c1.32-0.29,2.59-0.79,3.88-1.19c1.27-0.45,2.51-1.02,3.77-1.53l3.67-1.77l-0.39,0.29
				c1.06-1.18,2.09-2.62,3.01-4.02c0.93-1.42,1.76-2.9,2.46-4.43c1.37-3.06,2.38-6.32,2.43-9.65c0.06-1.66-0.09-3.32-0.46-4.95
				c-0.38-1.63-0.97-3.22-1.73-4.74c-1.56-3.04-3.8-5.77-6.33-8.25c2.99,1.91,5.66,4.41,7.71,7.45c0.97,1.55,1.83,3.2,2.39,4.98
				c0.54,1.78,0.86,3.64,0.93,5.51c0.1,3.75-0.78,7.47-2.28,10.84c-1.51,3.39-3.44,6.47-5.99,9.27l-0.18,0.19l-0.21,0.1l-3.89,1.81
				c-1.35,0.48-2.68,1.02-4.05,1.44c-2.75,0.82-5.56,1.46-8.44,1.66c-2.86,0.21-5.76,0.08-8.56-0.53
				C354.26,606.99,351.52,605.97,349.29,604.25z"/>
		</g>
		<g>
			<path class="st11" d="M323.8,566.66c-2.21-2.41-3.64-5.5-4.57-8.67c-0.92-3.2-1.21-6.57-1.07-9.92c0.06-0.83,0.15-1.67,0.23-2.5
				c0.08-0.83,0.29-1.64,0.42-2.47c0.25-1.66,0.77-3.25,1.24-4.85c0.5-1.59,1.19-3.11,1.77-4.66c0.7-1.5,1.49-2.96,2.24-4.44
				l0.47-0.93l1.04,0.18c2.72,0.48,5.3,1.14,7.87,2c2.57,0.83,5.08,1.87,7.47,3.14c2.4,1.27,4.68,2.82,6.61,4.76
				c1.93,1.92,3.45,4.36,3.9,7c-1.03-2.46-2.76-4.44-4.8-5.99c-1.03-0.77-2.09-1.48-3.21-2.1c-1.13-0.61-2.29-1.16-3.46-1.68
				c-2.37-1-4.82-1.83-7.31-2.53c-2.48-0.67-5.05-1.28-7.53-1.68l1.51-0.74l-2.1,4.24c-0.57,1.46-1.25,2.89-1.74,4.37
				c-0.99,2.97-1.83,5.99-2.18,9.1c-0.36,3.1-0.36,6.25,0.14,9.36C321.25,560.75,322.19,563.84,323.8,566.66z"/>
		</g>
		<g>
			<path class="st11" d="M324.49,612.36c-0.7,3.39-0.67,6.9,0.31,10.07c0.93,3.18,2.96,5.88,5.59,7.75
				c2.64,1.87,5.74,3.12,8.99,3.86c3.24,0.79,6.6,1.15,9.98,1.32l-0.67,0.13c2.84-1.29,5.65-2.95,8.28-4.71
				c2.66-1.77,5.12-3.81,7.31-6.08c2.12-2.31,4-4.91,4.96-7.91c0.5-1.49,0.75-3.06,0.78-4.66c-0.01-1.6-0.27-3.21-0.69-4.8
				c0.71,1.48,1.25,3.07,1.5,4.75c0.22,1.67,0.13,3.4-0.2,5.08c-0.7,3.38-2.48,6.43-4.62,9.06c-2.15,2.64-4.72,4.88-7.43,6.86
				c-2.73,1.99-5.59,3.67-8.69,5.15l-0.3,0.14l-0.37-0.02c-3.53-0.18-7.07-0.63-10.55-1.53c-0.87-0.24-1.72-0.53-2.58-0.81
				c-0.84-0.35-1.7-0.62-2.51-1.05c-1.66-0.74-3.23-1.74-4.65-2.91c-1.42-1.18-2.69-2.56-3.64-4.15c-0.95-1.59-1.6-3.33-1.95-5.11
				C322.7,619.22,323.14,615.57,324.49,612.36z"/>
		</g>
		<g>
			<path class="st11" d="M370.46,607.32c3.55,0.47,7.12,0.45,10.59-0.05c3.48-0.46,6.87-1.37,10.03-2.77
				c3.13-1.43,6.19-3.09,8.78-5.38c1.4-1,2.56-2.3,3.81-3.48c1.2-1.23,2.22-2.65,3.37-3.94l-0.29,0.73c0.35-3.25,0.4-6.64,0.34-9.96
				c-0.05-3.34-0.36-6.66-0.87-9.95c-0.57-3.27-1.35-6.52-2.71-9.54c-1.29-3.05-3.23-5.84-5.84-8.04c2.99,1.67,5.42,4.37,7.13,7.39
				c1.74,3.03,2.89,6.37,3.68,9.74c0.81,3.38,1.21,6.84,1.42,10.29c0.19,3.47,0.13,6.89-0.18,10.4l-0.04,0.43l-0.26,0.3l-1.78,2.12
				l-0.9,1.05l-0.45,0.53l-0.5,0.48c-1.36,1.25-2.61,2.63-4.15,3.69c-0.75,0.54-1.47,1.14-2.25,1.63l-2.39,1.42
				c-0.78,0.51-1.65,0.83-2.48,1.24c-0.84,0.39-1.68,0.78-2.57,1.04c-0.88,0.28-1.74,0.62-2.63,0.85l-2.69,0.63l-2.72,0.39
				c-0.91,0.11-1.83,0.13-2.73,0.19C377.54,608.85,373.87,608.46,370.46,607.32z"/>
		</g>
		<g>
			<path class="st11" d="M401.65,541.17c1.49-0.28,3.04,0.08,4.49,0.54l1.08,0.4l1.04,0.49c0.71,0.31,1.35,0.72,2.01,1.11
				c2.6,1.62,4.88,3.67,7.03,5.83c2.05,2.23,4.02,4.55,5.75,7.02c0.84,1.25,1.75,2.46,2.54,3.74c0.81,1.27,1.56,2.57,2.35,3.85
				l0.29,0.48l-0.11,0.51c-0.32,1.44-0.76,2.53-1.28,3.71c-0.52,1.15-1.16,2.22-1.82,3.27c-1.33,2.1-2.93,3.98-4.64,5.72l-1.31,1.27
				c-0.46,0.4-0.93,0.79-1.39,1.18c-0.91,0.8-1.91,1.5-2.88,2.2c-0.99,0.69-2.02,1.32-3.04,1.94c-1.05,0.59-2.12,1.13-3.18,1.67
				c0.92-0.78,1.83-1.54,2.75-2.28c0.87-0.82,1.79-1.55,2.63-2.37c1.7-1.63,3.34-3.3,4.81-5.09c1.47-1.79,2.81-3.67,3.95-5.64
				c0.55-0.99,1.07-2,1.49-3.04c0.23-0.51,0.42-1.03,0.6-1.55c0.17-0.5,0.34-1.09,0.41-1.48l0.18,0.99
				c-0.77-1.25-1.58-2.48-2.33-3.74c-0.76-1.26-1.61-2.45-2.41-3.68c-0.39-0.62-0.83-1.2-1.26-1.79l-1.27-1.79
				c-0.85-1.19-1.8-2.29-2.69-3.44c-1.88-2.22-3.86-4.35-6.09-6.2c-0.58-0.43-1.12-0.93-1.73-1.31l-0.9-0.61l-0.94-0.53
				c-0.31-0.2-0.64-0.33-0.97-0.49c-0.33-0.17-0.66-0.3-1.01-0.41C403.11,541.39,402.4,541.19,401.65,541.17z"/>
		</g>
		<g>
			<path class="st11" d="M331.74,531.32c0.2-1.05,0.58-2.08,1.07-3.05c0.46-0.98,1.04-1.91,1.66-2.81c1.24-1.8,2.76-3.38,4.38-4.84
				c1.61-1.49,3.41-2.72,5.22-3.94c0.92-0.58,1.88-1.1,2.82-1.65l2.9-1.48l0.36-0.18l0.46,0.08c1.93,0.34,3.65,0.89,5.42,1.52
				c1.74,0.64,3.45,1.38,5.08,2.29c3.26,1.78,6.31,4.06,8.77,6.89c2.48,2.81,4.36,6.15,5.41,9.7c1.05,3.55,1.33,7.26,0.95,10.84
				c-0.42-3.58-1.21-7.05-2.57-10.25c-0.7-1.59-1.54-3.1-2.47-4.54c-0.97-1.42-2.07-2.73-3.25-3.96c-1.18-1.24-2.51-2.33-3.89-3.34
				c-1.37-1.02-2.84-1.93-4.36-2.73c-1.53-0.79-3.09-1.52-4.7-2.14c-1.59-0.62-3.3-1.13-4.88-1.5l0.82-0.1l-2.84,1.28l-2.76,1.43
				c-1.81,1-3.6,2.07-5.26,3.3c-1.68,1.21-3.27,2.55-4.71,4.06C333.96,527.72,332.61,529.36,331.74,531.32z"/>
		</g>
		<g>
			<path class="st11" d="M366.28,522.53c1.99-1.64,4.19-3.04,6.46-4.29c2.28-1.25,4.64-2.35,7.09-3.25
				c2.44-0.93,4.95-1.68,7.51-2.24c2.55-0.63,5.17-0.92,7.78-1.18l0.77-0.08l0.45,0.68c1.46,2.21,2.48,4.44,3.39,6.8
				c0.89,2.34,1.6,4.75,2.11,7.2c0.97,4.91,1.24,9.97,0.6,14.93c-0.31,2.47-0.76,4.93-1.48,7.31c-0.31,1.2-0.75,2.37-1.13,3.54
				c-0.46,1.15-0.88,2.31-1.42,3.42c-2.03,4.5-4.67,8.68-7.79,12.43c2.43-4.22,4.53-8.58,6.13-13.09c1.61-4.5,2.61-9.18,3.02-13.88
				c0.38-4.71,0.11-9.45-0.86-14.05c-0.48-2.3-1.1-4.58-1.91-6.78c-0.41-1.1-0.86-2.19-1.35-3.25c-0.48-1.05-1.03-2.14-1.58-3.05
				l1.21,0.6c-2.5,0.14-5.01,0.37-7.49,0.79c-2.49,0.37-4.95,0.99-7.39,1.65c-2.44,0.68-4.84,1.53-7.2,2.48
				C370.85,520.19,368.52,521.25,366.28,522.53z"/>
		</g>
		<g>
			<path class="st11" d="M353.55,634.62c1.63,2.36,4.1,3.86,6.58,5.08c2.53,1.17,5.16,2.08,7.9,2.66c1.34,0.35,2.74,0.53,4.1,0.8
				c1.39,0.15,2.77,0.38,4.16,0.51c1.4,0.1,2.79,0.24,4.19,0.3c1.4,0.03,2.8,0.1,4.2,0.15l-1.05,0.41c1.27-1.3,2.53-2.76,3.7-4.22
				c1.19-1.47,2.33-2.97,3.38-4.53c2.1-3.12,3.99-6.39,5.3-9.88c1.36-3.46,2.11-7.15,1.87-10.85c-0.16-1.84-0.54-3.68-1.22-5.44
				c-0.67-1.77-1.65-3.42-2.74-5.02c1.37,1.36,2.64,2.88,3.6,4.62c0.92,1.75,1.62,3.65,1.97,5.64c0.69,3.98,0.14,8.11-1.08,11.9
				c-1.26,3.8-3.07,7.37-5.27,10.66c-2.18,3.32-4.62,6.36-7.47,9.21l-0.45,0.45l-0.6-0.03c-1.44-0.08-2.89-0.14-4.33-0.25
				c-1.44-0.12-2.88-0.33-4.32-0.49c-1.44-0.2-2.86-0.49-4.29-0.76c-1.41-0.38-2.83-0.67-4.22-1.13l-2.07-0.69l-2.02-0.84
				c-0.68-0.26-1.32-0.63-1.97-0.95c-0.66-0.31-1.28-0.71-1.89-1.1c-1.24-0.76-2.4-1.68-3.45-2.68
				C355.04,637.1,354.1,635.95,353.55,634.62z"/>
		</g>
		<g>
			<path class="st11" d="M319.84,572.5c0.55-1.55,1.46-2.96,2.47-4.27c1.04-1.29,2.22-2.5,3.57-3.52c1.32-1.04,2.78-1.94,4.33-2.62
				c1.54-0.73,3.18-1.2,4.83-1.6l0.1-0.02l0.12-0.01c1.68-0.08,3.28-0.05,4.91,0.06c1.62,0.12,3.25,0.29,4.85,0.62
				c1.61,0.31,3.2,0.72,4.73,1.32c1.52,0.62,3.02,1.36,4.25,2.44c-1.55-0.49-3.07-0.81-4.62-1.02c-1.53-0.24-3.1-0.32-4.64-0.42
				c-1.55-0.07-3.11-0.1-4.66-0.1c-1.55,0-3.13,0.02-4.63,0.1l0.22-0.03c-1.47,0.34-2.94,0.72-4.34,1.28
				c-1.43,0.51-2.78,1.2-4.12,1.94c-1.33,0.76-2.61,1.63-3.83,2.61C322.11,570.22,320.95,571.3,319.84,572.5z"/>
		</g>
		<g>
			<path class="st11" d="M367.2,558.93c-0.1-1.84-0.7-3.5-1.75-4.84c-1-1.37-2.33-2.46-3.72-3.45c-1.42-0.97-2.94-1.8-4.5-2.56
				c-1.56-0.74-3.21-1.44-4.79-1.97l0.88,0.01c-0.85,0.32-1.72,0.57-2.56,0.9l-1.23,0.55l-0.62,0.27l-0.58,0.33l-1.17,0.65
				l-1.1,0.76l-0.55,0.38l-0.51,0.44c-0.33,0.3-0.71,0.55-1.01,0.88l-0.95,0.96l-0.86,1.05c-0.56,0.71-1.08,1.47-1.52,2.28
				c-0.94,1.6-1.63,3.36-2.09,5.24c-0.23-1.95,0.1-3.95,0.71-5.85c0.65-1.89,1.62-3.73,2.95-5.29c0.31-0.41,0.68-0.76,1.03-1.14
				l0.54-0.55l0.59-0.5c0.39-0.33,0.79-0.66,1.2-0.97l1.29-0.83l0.65-0.41l0.69-0.34l1.38-0.67c0.94-0.38,1.9-0.7,2.86-1.03
				l0.43-0.15l0.46,0.16c1.84,0.64,3.5,1.41,5.16,2.33c1.64,0.91,3.21,1.98,4.63,3.25c1.42,1.26,2.7,2.76,3.53,4.52
				C367.53,555.12,367.75,557.18,367.2,558.93z"/>
		</g>
		<g>
			<path class="st11" d="M387.34,574.08c0.98-1.64,1.37-3.5,1.73-5.31l0.21-1.38l0.14-1.39c0.11-0.92,0.12-1.85,0.14-2.78
				c0.06-0.92,0.01-1.85,0-2.78c-0.01-0.46-0.01-0.93-0.04-1.39l-0.1-1.39c-0.07-1.85-0.34-3.7-0.54-5.55
				c-0.48-3.7-1.15-7.38-1.9-11.05c-0.45-1.82-0.74-3.68-1.2-5.5c-0.47-1.82-0.86-3.67-1.3-5.5l0.56,0.65
				c0-0.01-0.28-0.11-0.45-0.14c-0.2-0.05-0.42-0.09-0.64-0.12c-0.45-0.05-0.92-0.08-1.4-0.06c-0.95,0.03-1.93,0.15-2.91,0.33
				c-0.98,0.18-1.95,0.44-2.93,0.71c-0.97,0.29-1.95,0.6-2.93,0.93c0.86-0.56,1.74-1.12,2.66-1.6c0.92-0.49,1.87-0.92,2.86-1.29
				c0.98-0.39,2.02-0.66,3.1-0.83c0.54-0.09,1.1-0.13,1.67-0.15c0.29,0.01,0.58,0.01,0.88,0.05c0.33,0.05,0.55,0.06,1.02,0.25
				l0.39,0.15l0.16,0.5c0.6,1.81,1.24,3.62,1.79,5.45c0.55,1.83,1.04,3.69,1.5,5.55c0.46,1.86,0.8,3.76,1.17,5.64
				c0.3,1.9,0.55,3.81,0.76,5.73c0.32,3.85,0.36,7.74-0.16,11.6c-0.15,0.96-0.29,1.92-0.54,2.87c-0.12,0.47-0.2,0.95-0.35,1.42
				l-0.46,1.39c-0.33,0.92-0.69,1.82-1.18,2.67C388.6,572.61,388.03,573.42,387.34,574.08z"/>
		</g>
		<g>
			<path class="st11" d="M319.84,558.23c-1.18-0.4-2.35-0.82-3.51-1.26c-1.16-0.44-2.31-0.9-3.47-1.35l0.83-0.1
				c-2.7,2.9-4.98,6.38-6.09,10.02c-0.51,1.83-0.75,3.69-0.5,5.5c0.26,1.8,0.94,3.53,1.98,5.1c0.54,0.77,1.1,1.54,1.79,2.22
				c0.61,0.74,1.38,1.37,2.09,2.04c1.54,1.23,3.14,2.43,4.88,3.46c3.45,2.13,7.18,3.88,10.94,5.69c-4.1-0.76-8.13-1.99-11.97-3.79
				c-3.81-1.8-7.55-4.26-10.16-7.98c-1.3-1.84-2.24-4.05-2.48-6.36c-0.27-2.3,0.05-4.64,0.82-6.73c0.74-2.12,1.88-4.01,3.19-5.72
				c1.32-1.72,2.81-3.22,4.52-4.58l0.43-0.34l0.39,0.24c1.06,0.64,2.12,1.28,3.18,1.93C317.76,556.86,318.8,557.54,319.84,558.23z"
				/>
		</g>
		<g>
			<path class="st11" d="M331.74,578.98c-2.26-0.05-4.43-0.52-6.55-1.15c-2.11-0.66-4.17-1.52-6.12-2.62
				c-1.95-1.1-3.8-2.45-5.36-4.14c-0.78-0.85-1.46-1.81-1.99-2.84c-0.51-1.04-0.88-2.18-0.84-3.32c1.19,1.9,2.76,3.19,4.41,4.41
				c1.67,1.19,3.44,2.25,5.26,3.29c1.82,1.04,3.68,2.03,5.55,3.06C327.98,576.7,329.86,577.74,331.74,578.98z"/>
		</g>
		<g>
			<path class="st11" d="M371.55,572.25c-0.22-2.17-0.51-4.32-0.91-6.44c-0.2-1.06-0.43-2.1-0.72-3.11c-0.3-0.99-0.7-2.01-1.22-2.63
				l-0.06-0.08c0.02,0.04-0.01,0.01-0.03,0c-0.01-0.02-0.05-0.04-0.08-0.06c-0.06-0.04-0.12-0.08-0.2-0.12
				c-0.14-0.08-0.33-0.12-0.51-0.17c-0.19-0.03-0.39-0.05-0.59-0.07l-0.63,0.02c-0.87,0.12-1.76,0.33-2.64,0.69
				c-1.76,0.68-3.47,1.65-5.09,2.74l-1.23,0.8l-1.2,0.87l-1.2,0.87l-1.16,0.93c-1.57,1.22-3.06,2.54-4.59,3.81l-0.13,0.1l-0.13,0.07
				c-1.58,0.88-3.16,1.79-4.73,2.71c-1.56,0.93-3.14,1.84-4.68,2.78c-1.54,0.95-3.07,1.91-4.53,2.93c-0.72,0.51-1.45,1.02-2.1,1.56
				c-0.32,0.26-0.63,0.54-0.86,0.79c-0.12,0.12-0.2,0.25-0.22,0.28c-0.02,0.02,0.02-0.02,0.02-0.14c0.03-0.16-0.03-0.49-0.23-0.7
				l0.09,1.62c-1.09,1.71-1.84,3.99-1.44,5.91c0.35,1.98,2,3.56,3.99,4.63c2.03,1.04,4.33,1.71,6.67,2.19
				c2.35,0.47,4.75,0.77,7.17,1.01c-2.42,0.17-4.87,0.22-7.32,0.02c-2.45-0.21-4.92-0.62-7.3-1.61c-1.18-0.51-2.34-1.17-3.34-2.12
				c-0.99-0.94-1.8-2.19-2.15-3.58c-0.37-1.39-0.33-2.83-0.05-4.16c0.32-1.35,0.77-2.54,1.53-3.79l0.09,1.62
				c-0.34-0.39-0.46-0.96-0.41-1.34c0.04-0.35,0.15-0.61,0.24-0.79c0.19-0.38,0.39-0.62,0.57-0.84c0.37-0.44,0.74-0.78,1.11-1.12
				c0.74-0.65,1.49-1.24,2.25-1.79c1.53-1.1,3.08-2.11,4.65-3.09c1.57-0.98,3.14-1.95,4.74-2.86c1.6-0.92,3.2-1.81,4.83-2.69
				l-0.25,0.17c1.58-1.3,3.14-2.62,4.82-3.8l1.24-0.91l1.28-0.86l1.28-0.86l1.34-0.8c1.79-1.04,3.68-1.97,5.73-2.62
				c1.01-0.35,2.12-0.54,3.26-0.57l0.88,0.05c0.3,0.05,0.6,0.11,0.9,0.2c0.3,0.12,0.6,0.21,0.89,0.41c0.14,0.08,0.28,0.19,0.42,0.31
				c0.07,0.06,0.13,0.11,0.2,0.19c0.07,0.08,0.13,0.13,0.22,0.28l-0.06-0.08c0.78,1.14,1.01,2.26,1.23,3.36
				c0.19,1.11,0.31,2.21,0.39,3.3C371.71,567.89,371.7,570.07,371.55,572.25z"/>
		</g>
	</g>
	<g>
		<text transform="matrix(1 0 0 1 319.6938 602.3842)" class="st5 st13 st14">s</text>
		<text transform="matrix(1 0 0 1 303.1353 603.037)" class="st13 st15">m</text>
	</g>
</g>
<g>
	<g>
		<path class="st11" d="M160.36,206.85c-1.96,2.68-3.08,5.8-3.64,8.95c-0.26,1.58-0.42,3.17-0.37,4.77c0.02,0.8-0.01,1.59,0.1,2.38
			c0.1,0.79,0.11,1.59,0.28,2.37c0.15,0.78,0.27,1.57,0.43,2.35l0.59,2.32c0.19,0.77,0.5,1.52,0.74,2.28
			c0.26,0.76,0.51,1.52,0.81,2.23c0.29,0.72,0.63,1.42,1,2.2c0.36,0.77,0.7,1.59,0.99,2.41c0.59,1.63,1.04,3.26,1.43,4.89
			l-1.12-1.09c2.7,0.58,5.6,0.86,8.43,1.07c2.85,0.18,5.71,0.15,8.56-0.05c2.84-0.25,5.66-0.73,8.43-1.49
			c2.76-0.79,5.39-1.98,7.94-3.44c-2.18,1.96-4.73,3.57-7.48,4.76c-2.76,1.12-5.67,1.95-8.62,2.41c-2.96,0.46-5.95,0.63-8.94,0.57
			c-1.49-0.02-2.99-0.1-4.47-0.27c-1.5-0.15-2.95-0.35-4.49-0.66l-0.88-0.17l-0.24-0.92c-0.42-1.57-0.84-3.13-1.34-4.62
			c-0.48-1.48-1.21-2.84-1.88-4.51c-1.11-3.26-2.04-6.53-2.3-9.97c-0.12-0.84-0.08-1.71-0.11-2.56c-0.05-0.85,0.04-1.71,0.09-2.57
			c0.13-1.71,0.48-3.39,0.93-5.04C156.24,212.2,157.86,209.07,160.36,206.85z"/>
	</g>
	<g>
		<path class="st11" d="M175.12,213.14c-1.78,0.25-3.64,0.02-5.4-0.46c-0.45-0.09-0.88-0.26-1.31-0.41
			c-0.43-0.16-0.87-0.29-1.29-0.47c-0.82-0.4-1.7-0.72-2.48-1.21c-3.21-1.79-6.08-4.19-8.53-6.91l-0.94-1.01l-0.85-1.08l-1.7-2.16
			c-1.04-1.5-2.07-3.01-3.01-4.57c-0.87-1.59-1.8-3.16-2.63-4.78c-0.79-1.63-1.53-3.29-2.29-4.93l-0.36-0.78l0.52-0.67
			c1.89-2.41,3.95-4.39,6.24-6.23c2.26-1.84,4.74-3.41,7.33-4.71c1.28-0.7,2.65-1.2,3.99-1.74c1.39-0.42,2.74-0.96,4.17-1.2
			c2.8-0.71,5.7-0.84,8.53-0.78c-2.8,0.52-5.56,1.04-8.16,2.06c-1.32,0.42-2.57,1.05-3.85,1.58c-1.22,0.66-2.46,1.25-3.63,1.99
			c-2.36,1.42-4.58,3.06-6.65,4.86l-1.51,1.4c-0.48,0.49-0.97,0.97-1.44,1.46c-0.94,0.97-1.88,2.03-2.64,3.04l0.16-1.45
			c0.75,1.59,1.53,3.17,2.26,4.76c0.78,1.57,1.65,3.09,2.47,4.64c0.42,0.77,0.92,1.48,1.37,2.23c0.46,0.74,0.9,1.5,1.38,2.23
			l1.52,2.12l0.76,1.06l0.84,1c2.14,2.75,4.66,5.18,7.48,7.2c0.69,0.53,1.46,0.93,2.19,1.41c0.77,0.4,1.54,0.83,2.35,1.15
			C171.62,212.51,173.33,213.03,175.12,213.14z"/>
	</g>
	<g>
		<path class="st11" d="M157.68,175.54c-1.19-0.38-2.12-1.35-2.88-2.32c-0.41-0.48-0.71-1.03-1.07-1.55
			c-0.3-0.55-0.62-1.09-0.9-1.65c-1.1-2.25-1.85-4.63-2.48-7.03c-0.29-1.2-0.61-2.4-0.8-3.62c-0.21-1.21-0.46-2.43-0.61-3.65
			c-0.34-2.44-0.53-4.89-0.73-7.34l-0.07-0.92l0.79-0.45c2.17-1.24,4.3-2.28,6.55-3.19c2.25-0.88,4.53-1.68,6.88-2.24
			c2.33-0.62,4.74-0.96,7.13-1.15c2.4-0.16,4.82-0.04,7.17,0.37c-2.38,0.25-4.69,0.53-6.96,1.08c-2.27,0.53-4.5,1.16-6.68,1.94
			c-2.17,0.8-4.33,1.62-6.42,2.61c-2.08,0.96-4.2,2-6.1,3.15l0.71-1.37c0.17,2.4,0.31,4.8,0.57,7.18c0.18,2.39,0.54,4.76,0.88,7.12
			c0.41,2.34,0.82,4.71,1.55,6.96c0.17,0.57,0.38,1.12,0.57,1.68c0.24,0.53,0.45,1.1,0.72,1.62c0.26,0.53,0.56,1.04,0.91,1.52
			C156.76,174.77,157.15,175.23,157.68,175.54z"/>
	</g>
	<g>
		<path class="st11" d="M177.74,142.32c-1.02-1.41-1.69-3.06-2.2-4.74c-0.47-1.7-0.77-3.47-0.78-5.26c-0.04-1.79,0.13-3.6,0.57-5.35
			c0.17-0.89,0.49-1.73,0.77-2.59c0.3-0.85,0.7-1.66,1.06-2.48l0.31-0.71l0.83-0.1c1.71-0.21,3.37-0.35,5.05-0.42
			c1.68-0.07,3.37-0.09,5.06,0.01c1.69,0.08,3.37,0.24,5.05,0.53c1.67,0.32,3.33,0.7,4.89,1.37c-1.69-0.03-3.34-0.01-4.98,0.09
			c-1.64,0.06-3.28,0.22-4.91,0.34l-4.89,0.49c-1.62,0.18-3.27,0.35-4.86,0.57l1.14-0.81c-0.67,1.45-1.32,2.92-1.75,4.46
			c-0.5,1.52-0.76,3.11-0.98,4.72c-0.19,1.61-0.22,3.25-0.11,4.9C177.08,138.98,177.34,140.64,177.74,142.32z"/>
	</g>
	<g>
		<path class="st11" d="M187.13,143.11c-0.4-1.41-0.47-2.92-0.35-4.4c0.01-0.75,0.18-1.48,0.28-2.22c0.17-0.72,0.33-1.46,0.53-2.18
			c0.86-2.87,2.22-5.59,3.91-8.05c0.8-1.27,1.75-2.42,2.68-3.6c0.96-1.14,2.01-2.2,3.02-3.29c1.08-1.01,2.15-2.05,3.28-3.02
			l3.47-2.78l0.52-0.42l0.71,0.17c3.29,0.79,6.41,1.86,9.53,3.02c3.1,1.21,6.15,2.57,9.07,4.22c2.9,1.66,5.72,3.56,8.09,5.99
			c1.17,1.22,2.24,2.56,3.04,4.06c0.8,1.49,1.3,3.16,1.31,4.81c-0.74-3.25-2.94-5.75-5.39-7.73c-1.22-1.01-2.55-1.91-3.94-2.71
			c-1.37-0.83-2.78-1.59-4.24-2.27c-2.89-1.39-5.89-2.59-8.94-3.66c-3.03-1.1-6.17-2.02-9.23-2.85l1.23-0.25l-3.38,2.63l-3.23,2.78
			c-2.04,1.96-4.06,3.97-5.78,6.21c-0.91,1.09-1.65,2.29-2.45,3.46l-1.05,1.84c-0.33,0.63-0.6,1.28-0.92,1.91
			c-0.28,0.65-0.52,1.32-0.78,1.98c-0.18,0.68-0.44,1.36-0.57,2.06C187.23,140.21,187.02,141.65,187.13,143.11z"/>
	</g>
	<g>
		<path class="st11" d="M231.78,127.52c0.9-1.35,2.16-2.44,3.53-3.33c1.37-0.9,2.89-1.59,4.48-2.06c1.59-0.43,3.25-0.76,4.9-0.76
			c0.83-0.07,1.65,0.04,2.48,0.07c0.82,0.08,1.63,0.22,2.44,0.36l-0.66,0.05c0.22-0.07,0.5-0.09,0.74-0.04l0.11,0.03l0.04,0.01
			c0.06,0.02,0.11,0.04,0.17,0.07c0.05,0.02,0.11,0.06,0.15,0.08l0.04,0.03l0.15,0.12l0.14,0.13c0.08,0.08,0.12,0.13,0.17,0.2
			l0.25,0.32c0.15,0.2,0.28,0.4,0.41,0.6c0.25,0.4,0.5,0.79,0.72,1.19c0.45,0.8,0.89,1.59,1.28,2.41c0.8,1.63,1.51,3.3,2.07,5.07
			c-1.34-1.28-2.53-2.64-3.69-4.01c-0.59-0.68-1.14-1.38-1.7-2.06l-0.83-1.01l-0.41-0.46l-0.18-0.19c-0.02-0.01-0.06-0.06-0.06-0.05
			c0.01,0.01,0,0,0.02,0.02c0.03,0.02,0.06,0.05,0.09,0.07l0.02,0.01c0.03,0.02,0.09,0.05,0.13,0.08c0.05,0.02,0.1,0.04,0.15,0.06
			l0.15,0.04c0.23,0.05,0.51,0.04,0.73-0.04l-0.66,0.05c-1.48-0.13-2.94-0.25-4.4-0.22c-1.47-0.01-2.92,0.16-4.37,0.36
			c-1.45,0.23-2.88,0.59-4.33,1.03C234.63,126.22,233.2,126.77,231.78,127.52z"/>
	</g>
	<g>
		<path class="st11" d="M179.54,175.54c-2.39-1.72-4.34-4.06-5.87-6.64c-1.52-2.58-2.65-5.45-3.22-8.44
			c-0.17-0.74-0.21-1.5-0.32-2.26l-0.14-1.13l-0.03-1.14c-0.02-0.76-0.04-1.52-0.02-2.28l0.22-2.27l0.11-1.13l0.22-1.11
			c0.15-0.74,0.3-1.49,0.47-2.22c0.39-1.46,0.91-2.87,1.37-4.31l0.28-0.88l0.97-0.06c2.07-0.13,4.08-0.09,6.12-0.05
			c2.03,0.05,4.07,0.24,6.1,0.5c2.02,0.31,4.06,0.67,6.01,1.38c0.97,0.35,1.94,0.77,2.81,1.39c0.86,0.59,1.62,1.48,1.78,2.49
			c-0.41-0.95-1.26-1.5-2.12-1.89c-0.88-0.38-1.83-0.61-2.79-0.79c-1.92-0.33-3.89-0.47-5.86-0.51c-1.97-0.08-3.95-0.01-5.93,0.04
			c-1.97,0.05-3.97,0.2-5.91,0.33l1.25-0.94c-0.39,1.35-0.86,2.68-1.2,4.03c-0.13,0.69-0.28,1.37-0.43,2.05l-0.23,1.02l-0.12,1.04
			l-0.25,2.07l-0.06,2.08l-0.03,1.04l0.07,1.04c0.06,0.69,0.05,1.39,0.17,2.08c0.3,2.77,1.09,5.48,2.16,8.1
			C176.25,170.77,177.69,173.27,179.54,175.54z"/>
	</g>
	<g>
		<path class="st11" d="M174.37,196.82c0,2.4,0.3,4.77,0.71,7.09c0.43,2.32,0.98,4.61,1.69,6.84c0.72,2.23,1.54,4.42,2.52,6.54
			c0.44,1.08,1.02,2.1,1.53,3.14l1.7,3.06l-0.62-0.58c1.31,0.57,2.88,1.06,4.38,1.45c1.53,0.38,3.06,0.74,4.63,0.96
			c3.13,0.44,6.3,0.7,9.49,0.57c0.8,0,1.59-0.09,2.39-0.12c0.8-0.04,1.6-0.1,2.39-0.22c0.79-0.11,1.59-0.2,2.39-0.29l2.37-0.44
			c1.6-0.25,3.15-0.71,4.73-1.07c0.8-0.16,1.56-0.46,2.35-0.68l2.37-0.69c-1.44,0.77-2.89,1.58-4.4,2.26l-2.3,0.94
			c-0.39,0.15-0.77,0.32-1.16,0.46l-1.19,0.37l-2.39,0.73c-0.81,0.19-1.62,0.37-2.44,0.55c-0.81,0.2-1.64,0.33-2.47,0.44
			c-0.83,0.1-1.66,0.27-2.49,0.33c-3.34,0.29-6.73,0.25-10.07-0.22c-1.67-0.21-3.33-0.55-4.98-0.96c-1.65-0.47-3.21-0.96-4.89-1.73
			l-0.42-0.19l-0.2-0.38c-0.57-1.09-1.19-2.15-1.7-3.26c-0.49-1.13-1.04-2.22-1.45-3.38l-0.66-1.72l-0.55-1.76
			c-0.38-1.16-0.63-2.37-0.93-3.55c-0.5-2.39-0.83-4.82-0.91-7.25C173.73,201.62,173.84,199.17,174.37,196.82z"/>
	</g>
	<g>
		<path class="st11" d="M222.29,220.25c2.51,1.23,5.24,1.8,7.95,2.07c2.72,0.25,5.44,0.08,8.1-0.32l1.99-0.36
			c0.66-0.15,1.31-0.34,1.97-0.5c1.32-0.29,2.59-0.79,3.88-1.19c1.27-0.45,2.51-1.02,3.77-1.53l3.67-1.77l-0.39,0.29
			c1.06-1.18,2.09-2.62,3.01-4.02c0.93-1.42,1.76-2.9,2.46-4.43c1.37-3.06,2.38-6.32,2.43-9.65c0.06-1.66-0.09-3.32-0.46-4.95
			c-0.38-1.63-0.97-3.22-1.73-4.74c-1.56-3.04-3.8-5.77-6.33-8.25c2.99,1.91,5.66,4.41,7.71,7.45c0.97,1.55,1.83,3.2,2.39,4.98
			c0.54,1.78,0.86,3.64,0.93,5.51c0.1,3.75-0.78,7.47-2.28,10.84c-1.51,3.39-3.44,6.47-5.99,9.27l-0.18,0.19l-0.21,0.1l-3.89,1.81
			c-1.35,0.48-2.68,1.02-4.05,1.44c-2.75,0.82-5.56,1.46-8.44,1.66c-2.86,0.21-5.76,0.08-8.56-0.53
			C227.26,222.99,224.52,221.97,222.29,220.25z"/>
	</g>
	<g>
		<path class="st11" d="M196.8,182.66c-2.21-2.41-3.64-5.5-4.57-8.67c-0.92-3.2-1.21-6.57-1.07-9.92c0.06-0.83,0.15-1.67,0.23-2.5
			c0.08-0.83,0.29-1.64,0.42-2.47c0.25-1.66,0.77-3.25,1.24-4.85c0.5-1.59,1.19-3.11,1.77-4.66c0.7-1.5,1.49-2.96,2.24-4.44
			l0.47-0.93l1.04,0.18c2.72,0.48,5.3,1.14,7.87,2c2.57,0.83,5.08,1.87,7.47,3.14c2.4,1.27,4.68,2.82,6.61,4.76
			c1.93,1.92,3.45,4.36,3.9,7c-1.03-2.46-2.76-4.44-4.8-5.99c-1.03-0.77-2.09-1.48-3.21-2.1c-1.13-0.61-2.29-1.16-3.46-1.68
			c-2.37-1-4.82-1.83-7.31-2.53c-2.48-0.67-5.05-1.28-7.53-1.68l1.51-0.74l-2.1,4.24c-0.57,1.46-1.25,2.89-1.74,4.37
			c-0.99,2.97-1.83,5.99-2.18,9.1c-0.36,3.1-0.36,6.25,0.14,9.36C194.25,176.75,195.19,179.84,196.8,182.66z"/>
	</g>
	<g>
		<path class="st11" d="M197.49,228.36c-0.7,3.39-0.67,6.9,0.31,10.07c0.93,3.18,2.96,5.88,5.59,7.75c2.64,1.87,5.74,3.12,8.99,3.86
			c3.24,0.79,6.6,1.15,9.98,1.32l-0.67,0.13c2.84-1.29,5.65-2.95,8.28-4.71c2.66-1.77,5.12-3.81,7.31-6.08
			c2.12-2.31,4-4.91,4.96-7.91c0.5-1.49,0.75-3.06,0.78-4.66c-0.01-1.6-0.27-3.21-0.69-4.8c0.71,1.48,1.25,3.07,1.5,4.75
			c0.22,1.67,0.13,3.4-0.2,5.08c-0.7,3.38-2.48,6.43-4.62,9.06c-2.15,2.64-4.72,4.88-7.43,6.86c-2.73,1.99-5.59,3.67-8.69,5.15
			l-0.3,0.14l-0.37-0.02c-3.53-0.18-7.07-0.63-10.55-1.53c-0.87-0.24-1.72-0.53-2.58-0.81c-0.84-0.35-1.7-0.62-2.51-1.05
			c-1.66-0.74-3.23-1.74-4.65-2.91c-1.42-1.18-2.69-2.56-3.64-4.15c-0.95-1.59-1.6-3.33-1.95-5.11
			C195.7,235.22,196.14,231.57,197.49,228.36z"/>
	</g>
	<g>
		<path class="st11" d="M243.46,223.32c3.55,0.47,7.12,0.45,10.59-0.05c3.48-0.46,6.87-1.37,10.03-2.77
			c3.13-1.43,6.19-3.09,8.78-5.38c1.4-1,2.56-2.3,3.81-3.48c1.2-1.23,2.22-2.65,3.37-3.94l-0.29,0.73c0.35-3.25,0.4-6.64,0.34-9.96
			c-0.05-3.34-0.36-6.66-0.87-9.95c-0.57-3.27-1.35-6.52-2.71-9.54c-1.29-3.05-3.23-5.84-5.84-8.04c2.99,1.67,5.42,4.37,7.13,7.39
			c1.74,3.03,2.89,6.37,3.68,9.74c0.81,3.38,1.21,6.84,1.42,10.29c0.19,3.47,0.13,6.89-0.18,10.4l-0.04,0.43l-0.26,0.3l-1.78,2.12
			l-0.9,1.05l-0.45,0.53l-0.5,0.48c-1.36,1.25-2.61,2.63-4.15,3.69c-0.75,0.54-1.47,1.14-2.25,1.63l-2.39,1.42
			c-0.78,0.51-1.65,0.83-2.48,1.24c-0.84,0.39-1.68,0.78-2.57,1.04c-0.88,0.28-1.74,0.62-2.63,0.85l-2.69,0.63l-2.72,0.39
			c-0.91,0.11-1.83,0.13-2.73,0.19C250.54,224.85,246.87,224.46,243.46,223.32z"/>
	</g>
	<g>
		<path class="st11" d="M274.65,157.17c1.49-0.28,3.04,0.08,4.49,0.54l1.08,0.4l1.04,0.49c0.71,0.31,1.35,0.72,2.01,1.11
			c2.6,1.62,4.88,3.67,7.03,5.83c2.05,2.23,4.02,4.55,5.75,7.02c0.84,1.25,1.75,2.46,2.54,3.74c0.81,1.27,1.56,2.57,2.35,3.85
			l0.29,0.48l-0.11,0.51c-0.32,1.44-0.76,2.53-1.28,3.71c-0.52,1.15-1.16,2.22-1.82,3.27c-1.33,2.1-2.93,3.98-4.64,5.72l-1.31,1.27
			c-0.46,0.4-0.93,0.79-1.39,1.18c-0.91,0.8-1.91,1.5-2.88,2.2c-0.99,0.69-2.02,1.32-3.04,1.94c-1.05,0.59-2.12,1.13-3.18,1.67
			c0.92-0.78,1.83-1.54,2.75-2.28c0.87-0.82,1.79-1.55,2.63-2.37c1.7-1.63,3.34-3.3,4.81-5.09c1.47-1.79,2.81-3.67,3.95-5.64
			c0.55-0.99,1.07-2,1.49-3.04c0.23-0.51,0.42-1.03,0.6-1.55c0.17-0.5,0.34-1.09,0.41-1.48l0.18,0.99
			c-0.77-1.25-1.58-2.48-2.33-3.74c-0.76-1.26-1.61-2.45-2.41-3.68c-0.39-0.62-0.83-1.2-1.26-1.79l-1.27-1.79
			c-0.85-1.19-1.8-2.29-2.69-3.44c-1.88-2.22-3.86-4.35-6.09-6.2c-0.58-0.43-1.12-0.93-1.73-1.31l-0.9-0.61l-0.94-0.53
			c-0.31-0.2-0.64-0.33-0.97-0.49c-0.33-0.17-0.66-0.3-1.01-0.41C276.11,157.39,275.4,157.19,274.65,157.17z"/>
	</g>
	<g>
		<path class="st11" d="M204.74,147.32c0.2-1.05,0.58-2.08,1.07-3.05c0.46-0.98,1.04-1.91,1.66-2.81c1.24-1.8,2.76-3.38,4.38-4.84
			c1.61-1.49,3.41-2.72,5.22-3.94c0.92-0.58,1.88-1.1,2.82-1.65l2.9-1.48l0.36-0.18l0.46,0.08c1.93,0.34,3.65,0.89,5.42,1.52
			c1.74,0.64,3.45,1.38,5.08,2.29c3.26,1.78,6.31,4.06,8.77,6.89c2.48,2.81,4.36,6.15,5.41,9.7c1.05,3.55,1.33,7.26,0.95,10.84
			c-0.42-3.58-1.21-7.05-2.57-10.25c-0.7-1.59-1.54-3.1-2.47-4.54c-0.97-1.42-2.07-2.73-3.25-3.96c-1.18-1.24-2.51-2.33-3.89-3.34
			c-1.37-1.02-2.84-1.93-4.36-2.73c-1.53-0.79-3.09-1.52-4.7-2.14c-1.59-0.62-3.3-1.13-4.88-1.5l0.82-0.1l-2.84,1.28l-2.76,1.43
			c-1.81,1-3.6,2.07-5.26,3.3c-1.68,1.21-3.27,2.55-4.71,4.06C206.96,143.72,205.61,145.36,204.74,147.32z"/>
	</g>
	<g>
		<path class="st11" d="M239.28,138.53c1.99-1.64,4.19-3.04,6.46-4.29c2.28-1.25,4.64-2.35,7.09-3.25c2.44-0.93,4.95-1.68,7.51-2.24
			c2.55-0.63,5.17-0.92,7.78-1.18l0.77-0.08l0.45,0.68c1.46,2.21,2.48,4.44,3.39,6.8c0.89,2.34,1.6,4.75,2.11,7.2
			c0.97,4.91,1.24,9.97,0.6,14.93c-0.31,2.47-0.76,4.93-1.48,7.31c-0.31,1.2-0.75,2.37-1.13,3.54c-0.46,1.15-0.88,2.31-1.42,3.42
			c-2.03,4.5-4.67,8.68-7.79,12.43c2.43-4.22,4.53-8.58,6.13-13.09c1.61-4.5,2.61-9.18,3.02-13.88c0.38-4.71,0.11-9.45-0.86-14.05
			c-0.48-2.3-1.1-4.58-1.91-6.78c-0.41-1.1-0.86-2.19-1.35-3.25c-0.48-1.05-1.03-2.14-1.58-3.05l1.21,0.6
			c-2.5,0.14-5.01,0.37-7.49,0.79c-2.49,0.37-4.94,0.99-7.39,1.65c-2.44,0.68-4.84,1.53-7.2,2.48
			C243.85,136.19,241.52,137.25,239.28,138.53z"/>
	</g>
	<g>
		<path class="st11" d="M226.55,250.62c1.63,2.36,4.1,3.86,6.58,5.08c2.53,1.17,5.16,2.08,7.9,2.66c1.34,0.35,2.74,0.53,4.1,0.8
			c1.39,0.15,2.77,0.38,4.16,0.51c1.4,0.1,2.79,0.24,4.19,0.3c1.4,0.03,2.8,0.1,4.2,0.15l-1.05,0.41c1.27-1.3,2.53-2.76,3.7-4.22
			c1.19-1.47,2.33-2.97,3.38-4.53c2.1-3.12,3.99-6.39,5.3-9.88c1.36-3.46,2.11-7.15,1.87-10.85c-0.16-1.84-0.54-3.68-1.22-5.44
			c-0.67-1.77-1.65-3.42-2.74-5.02c1.37,1.36,2.64,2.88,3.6,4.62c0.92,1.75,1.62,3.65,1.97,5.64c0.69,3.98,0.14,8.11-1.08,11.9
			c-1.26,3.8-3.07,7.37-5.27,10.66c-2.18,3.32-4.62,6.36-7.47,9.21l-0.45,0.45l-0.6-0.03c-1.44-0.08-2.89-0.14-4.33-0.25
			c-1.44-0.12-2.88-0.33-4.32-0.49c-1.44-0.2-2.86-0.49-4.29-0.76c-1.41-0.38-2.83-0.67-4.22-1.13l-2.07-0.69l-2.02-0.84
			c-0.68-0.26-1.32-0.63-1.97-0.95c-0.66-0.31-1.28-0.71-1.89-1.1c-1.24-0.76-2.4-1.68-3.45-2.68
			C228.04,253.1,227.1,251.95,226.55,250.62z"/>
	</g>
	<g>
		<path class="st11" d="M192.84,188.5c0.55-1.55,1.46-2.96,2.47-4.27c1.04-1.29,2.22-2.5,3.57-3.52c1.32-1.04,2.78-1.94,4.33-2.62
			c1.54-0.73,3.18-1.2,4.83-1.6l0.1-0.02l0.12-0.01c1.68-0.08,3.28-0.05,4.91,0.06c1.62,0.12,3.25,0.29,4.85,0.62
			c1.61,0.31,3.2,0.72,4.73,1.32c1.52,0.62,3.02,1.36,4.25,2.44c-1.55-0.49-3.07-0.81-4.62-1.02c-1.53-0.24-3.1-0.32-4.64-0.42
			c-1.55-0.07-3.11-0.1-4.66-0.1c-1.55,0-3.13,0.02-4.63,0.1l0.22-0.03c-1.47,0.34-2.94,0.72-4.34,1.28
			c-1.43,0.51-2.78,1.2-4.12,1.94c-1.33,0.76-2.61,1.63-3.83,2.61C195.11,186.22,193.95,187.3,192.84,188.5z"/>
	</g>
	<g>
		<path class="st11" d="M240.2,174.93c-0.1-1.84-0.7-3.5-1.75-4.84c-1-1.37-2.33-2.46-3.72-3.45c-1.42-0.97-2.94-1.8-4.5-2.56
			c-1.56-0.74-3.21-1.44-4.79-1.97l0.88,0.01c-0.85,0.32-1.72,0.57-2.56,0.9l-1.23,0.55l-0.62,0.27l-0.58,0.33l-1.17,0.65l-1.1,0.76
			l-0.55,0.38l-0.51,0.44c-0.33,0.3-0.71,0.55-1.01,0.88l-0.95,0.96l-0.86,1.05c-0.56,0.71-1.08,1.47-1.52,2.28
			c-0.94,1.6-1.63,3.36-2.09,5.24c-0.23-1.95,0.1-3.95,0.71-5.85c0.65-1.89,1.62-3.73,2.95-5.29c0.31-0.41,0.68-0.76,1.03-1.14
			l0.54-0.55l0.59-0.5c0.39-0.33,0.79-0.66,1.2-0.97l1.29-0.83l0.65-0.41l0.69-0.34l1.38-0.67c0.94-0.38,1.9-0.7,2.86-1.03
			l0.43-0.15l0.46,0.16c1.84,0.64,3.5,1.41,5.16,2.33c1.64,0.91,3.21,1.98,4.63,3.25c1.42,1.26,2.7,2.76,3.53,4.52
			C240.53,171.12,240.75,173.18,240.2,174.93z"/>
	</g>
	<g>
		<path class="st11" d="M260.34,190.08c0.98-1.64,1.37-3.5,1.73-5.31l0.21-1.38l0.14-1.39c0.11-0.92,0.12-1.85,0.14-2.78
			c0.06-0.92,0.01-1.85,0-2.78c-0.01-0.46-0.01-0.93-0.04-1.39l-0.1-1.39c-0.07-1.85-0.34-3.7-0.54-5.55
			c-0.48-3.7-1.15-7.38-1.9-11.05c-0.45-1.82-0.74-3.68-1.2-5.5c-0.47-1.82-0.86-3.67-1.3-5.5l0.56,0.65c0-0.01-0.28-0.11-0.45-0.14
			c-0.2-0.05-0.42-0.09-0.64-0.12c-0.45-0.05-0.92-0.08-1.4-0.06c-0.95,0.03-1.93,0.15-2.91,0.33c-0.98,0.18-1.95,0.44-2.93,0.71
			c-0.97,0.29-1.95,0.6-2.93,0.93c0.86-0.56,1.74-1.12,2.66-1.6c0.92-0.49,1.87-0.92,2.86-1.29c0.98-0.39,2.02-0.66,3.1-0.83
			c0.54-0.09,1.1-0.13,1.67-0.15c0.29,0.01,0.58,0.01,0.88,0.05c0.33,0.05,0.55,0.06,1.02,0.25l0.39,0.15l0.16,0.5
			c0.6,1.81,1.24,3.62,1.79,5.45c0.55,1.83,1.04,3.69,1.5,5.55c0.46,1.86,0.8,3.76,1.17,5.64c0.3,1.9,0.55,3.81,0.76,5.73
			c0.32,3.85,0.36,7.74-0.16,11.6c-0.15,0.96-0.29,1.92-0.54,2.87c-0.12,0.47-0.2,0.95-0.35,1.42l-0.46,1.39
			c-0.33,0.92-0.69,1.82-1.18,2.67C261.6,188.61,261.03,189.42,260.34,190.08z"/>
	</g>
	<g>
		<path class="st11" d="M192.84,174.23c-1.18-0.4-2.35-0.82-3.51-1.26c-1.16-0.44-2.31-0.9-3.47-1.35l0.83-0.1
			c-2.7,2.9-4.98,6.38-6.09,10.02c-0.51,1.83-0.75,3.69-0.5,5.5c0.26,1.8,0.94,3.53,1.98,5.1c0.54,0.77,1.1,1.54,1.79,2.22
			c0.61,0.74,1.38,1.37,2.09,2.04c1.54,1.23,3.14,2.43,4.88,3.46c3.45,2.13,7.18,3.88,10.94,5.69c-4.1-0.76-8.13-1.99-11.97-3.79
			c-3.81-1.8-7.55-4.26-10.16-7.98c-1.3-1.84-2.24-4.05-2.48-6.36c-0.27-2.3,0.05-4.64,0.82-6.73c0.74-2.12,1.88-4.01,3.19-5.72
			c1.32-1.72,2.81-3.22,4.52-4.58l0.43-0.34l0.39,0.24c1.06,0.64,2.12,1.28,3.18,1.93C190.76,172.86,191.8,173.54,192.84,174.23z"/>
	</g>
	<g>
		<path class="st11" d="M204.74,194.98c-2.26-0.05-4.43-0.52-6.55-1.15c-2.11-0.66-4.17-1.52-6.12-2.62
			c-1.95-1.1-3.8-2.45-5.36-4.14c-0.78-0.85-1.46-1.81-1.99-2.84c-0.51-1.04-0.88-2.18-0.84-3.32c1.19,1.9,2.76,3.19,4.41,4.41
			c1.67,1.19,3.44,2.25,5.26,3.29c1.82,1.04,3.68,2.03,5.55,3.06C200.98,192.7,202.86,193.74,204.74,194.98z"/>
	</g>
	<g>
		<path class="st11" d="M244.55,188.25c-0.22-2.17-0.51-4.32-0.91-6.44c-0.2-1.06-0.43-2.1-0.72-3.11c-0.3-0.99-0.7-2.01-1.22-2.63
			l-0.06-0.08c0.02,0.04-0.01,0.01-0.03,0c-0.01-0.02-0.05-0.04-0.08-0.06c-0.06-0.04-0.12-0.08-0.2-0.12
			c-0.14-0.08-0.33-0.12-0.51-0.17c-0.19-0.03-0.39-0.05-0.59-0.07l-0.63,0.02c-0.87,0.12-1.76,0.33-2.64,0.69
			c-1.76,0.68-3.47,1.65-5.09,2.74l-1.23,0.8l-1.2,0.87l-1.2,0.87l-1.16,0.93c-1.57,1.22-3.06,2.54-4.59,3.81l-0.13,0.1l-0.13,0.07
			c-1.58,0.88-3.16,1.79-4.73,2.71c-1.56,0.93-3.14,1.84-4.68,2.78c-1.54,0.95-3.07,1.91-4.53,2.93c-0.72,0.51-1.45,1.02-2.1,1.56
			c-0.32,0.26-0.63,0.54-0.86,0.79c-0.12,0.12-0.2,0.25-0.22,0.28c-0.02,0.02,0.02-0.02,0.02-0.14c0.03-0.16-0.03-0.49-0.23-0.7
			l0.09,1.62c-1.09,1.71-1.84,3.99-1.44,5.91c0.35,1.98,2,3.56,3.99,4.63c2.03,1.04,4.33,1.71,6.67,2.19
			c2.35,0.47,4.75,0.77,7.17,1.01c-2.42,0.17-4.87,0.22-7.32,0.02c-2.45-0.21-4.92-0.62-7.3-1.61c-1.18-0.51-2.34-1.17-3.34-2.12
			c-0.99-0.94-1.8-2.19-2.15-3.58c-0.37-1.39-0.33-2.83-0.05-4.16c0.32-1.35,0.77-2.54,1.53-3.79l0.09,1.62
			c-0.34-0.39-0.46-0.96-0.41-1.34c0.04-0.35,0.15-0.61,0.24-0.79c0.19-0.37,0.39-0.62,0.57-0.84c0.37-0.44,0.74-0.78,1.11-1.12
			c0.74-0.65,1.49-1.24,2.25-1.79c1.53-1.1,3.08-2.11,4.65-3.09c1.57-0.98,3.14-1.95,4.74-2.86c1.6-0.92,3.2-1.81,4.83-2.69
			l-0.25,0.17c1.58-1.3,3.14-2.62,4.82-3.8l1.24-0.91l1.28-0.86l1.28-0.86l1.34-0.8c1.79-1.04,3.68-1.97,5.73-2.62
			c1.01-0.35,2.12-0.54,3.26-0.57l0.88,0.05c0.3,0.05,0.6,0.11,0.9,0.2c0.3,0.12,0.6,0.21,0.89,0.41c0.14,0.08,0.28,0.19,0.42,0.31
			c0.07,0.06,0.13,0.11,0.2,0.19c0.07,0.08,0.13,0.13,0.22,0.28l-0.06-0.08c0.78,1.14,1.01,2.26,1.23,3.36
			c0.19,1.11,0.31,2.21,0.39,3.3C244.71,183.89,244.7,186.07,244.55,188.25z"/>
	</g>
</g>
<text transform="matrix(1 0 0 1 192.6938 218.3843)" class="st5 st13 st14">s</text>
<text transform="matrix(1 0 0 1 176.1353 219.0371)" class="st13 st15">m</text>
<rect x="1495" y="449" class="st10" width="1158" height="2474"/>
<g>
	<rect x="1512.35" y="468" class="st1" width="1124.65" height="343"/>
</g>
<g class="st3">
	<rect x="1512" y="811.03" class="st4" width="1125" height="379.03"/>
</g>
<text transform="matrix(0.9863 0 0 1 1855.9888 1046.3008)" class="st13" style="font-size:155.904px;">BANER</text>
<path class="st3" d="M2592.33,750.06H1623c-9.94,0-18-8.06-18-18V686c0-9.94,8.06-18,18-18h969.33c9.94,0,18,8.06,18,18v46.07
	C2610.33,742.01,2602.28,750.06,2592.33,750.06z"/>
<text transform="matrix(1 0 0 1 1694.084 722.5835)" style="opacity:0.8;fill:#FFFFFF; font-family:'MyriadPro-Regular'; font-size:46.1694px;">Serch</text>
<g class="st3">
	<g>
		<path class="st5" d="M1667.09,702.93c-0.1,3.84-1.52,7.61-4.1,10.57c-2.55,2.97-6.45,4.97-10.57,5.1c-4.1,0.15-8.31-1.4-11.37-4.3
			c-3.07-2.88-4.95-7.07-5.05-11.37c-0.15-4.3,1.46-8.7,4.47-11.95c3-3.26,7.51-5.15,11.95-4.97c2.21,0.08,4.4,0.66,6.32,1.68
			c1.92,1.02,3.56,2.45,4.83,4.1C1666.09,695.12,1667.18,699.11,1667.09,702.93z M1666.59,702.93c-0.06-1.86-0.55-3.69-1.42-5.28
			c-0.88-1.59-2.1-2.95-3.5-3.97c-2.84-2.04-6.14-2.8-9.25-2.67c-3.13,0.15-6.11,1.37-8.45,3.47c-2.36,2.08-3.84,5.18-3.97,8.45
			c-0.12,3.26,1.1,6.58,3.4,9.02c2.26,2.47,5.56,4.02,9.02,4.15c3.44,0.15,7.05-0.95,9.83-3.34
			C1665.03,710.39,1666.71,706.66,1666.59,702.93z"/>
	</g>
	<g>
		<path class="st5" d="M1661.81,713.85c1.57,1.01,3.08,2.1,4.59,3.17l2.23,1.65l2.18,1.7c0.72,0.57,1.51,1.08,2.28,1.6
			c0.76,0.53,1.42,1.17,1.96,1.92c1.06,1.52,1.97,3.2,2.29,5.47l-0.35,0.35c-2.27-0.32-3.95-1.23-5.47-2.29
			c-0.75-0.54-1.39-1.2-1.92-1.96c-0.53-0.77-1.03-1.55-1.6-2.28l-1.7-2.18l-1.65-2.23c-1.08-1.51-2.16-3.01-3.17-4.59
			L1661.81,713.85z"/>
	</g>
</g>
<g class="st3">
	<g>
		<path d="M2504.89,515.56c22.09-0.05,41.73,18.64,40.73,42.81c-0.96,23.35-20.65,40.87-43.72,39.51
			c-22.13-1.3-39.64-20.3-38.63-42.87C2464.31,531.83,2483.61,515.19,2504.89,515.56z M2478.98,582.16
			c2.64-7.44,7.41-12.91,14.61-16.07c7.2-3.16,14.51-3.1,21.61,0.22c7.07,3.31,11.79,8.86,14.27,16.31c8.15-7.57,14.38-22,9.1-37.49
			c-4.33-12.74-16.9-25.18-35.94-24.4c-15.2,0.62-28.06,10.93-32.58,25.11C2465.32,560.67,2471.11,574.81,2478.98,582.16z"/>
		<path d="M2504.13,559.43c-6.27,0.5-13.88-4.68-15.12-12.75c-1.29-8.37,3.76-15.46,11.27-17.41c4.71-1.22,9.13-0.39,13.03,2.55
			c4.46,3.37,6.42,7.92,6.14,13.49c-0.28,5.77-4.56,12.23-12.23,13.89C2506.22,559.41,2505.17,559.36,2504.13,559.43z"/>
	</g>
</g>
<circle class="st11" cx="1754.56" cy="1273.02" r="53.01"/>
<circle class="st11" cx="1918.57" cy="1273.02" r="53.01"/>
<circle class="st11" cx="2082.29" cy="1273.02" r="53.01"/>
<circle class="st11" cx="2237.81" cy="1273.02" r="53.01"/>
<circle class="st11" cx="2410.02" cy="1273.02" r="53.01"/>
<text transform="matrix(1 0 0 1 1706.8379 1350.4131)" style="fill:#6EB79C; font-family:'MicrosoftNewTaiLue'; font-size:19.8471px;">Category 1</text>
<text transform="matrix(1 0 0 1 1870.8486 1350.4131)" style="fill:#6EB79C; font-family:'MicrosoftNewTaiLue'; font-size:19.8471px;">Category 2</text>
<text transform="matrix(1 0 0 1 2034.5674 1350.4131)" style="fill:#6EB79C; font-family:'MicrosoftNewTaiLue'; font-size:19.8471px;">Category 3</text>
<text transform="matrix(1 0 0 1 2190.085 1350.4131)" style="fill:#6EB79C; font-family:'MicrosoftNewTaiLue'; font-size:19.8471px;">Category 4</text>
<text transform="matrix(1 0 0 1 2362.2969 1350.4131)" style="fill:#6EB79C; font-family:'MicrosoftNewTaiLue'; font-size:19.8471px;">Category 5</text>
<rect x="1516" y="2633.61" class="st16" width="1125" height="270.31"/>
<text transform="matrix(1 0 0 1 1609.0889 2717.3916)"><tspan x="0" y="0" class="st10" style="font-family:'CaviarDreams'; font-size:32.8209px;">Atención al cliente:</tspan><tspan x="0" y="39.38" class="st10" style="font-family:'CaviarDreams'; font-size:32.8209px;">0800 NOROMPALOSHUEVOS</tspan><tspan x="0" y="78.77" class="st10" style="font-family:'CaviarDreams'; font-size:32.8209px;">LU-VI de 09:00 a 18:00</tspan><tspan x="0" y="118.16" class="st10" style="font-family:'CaviarDreams'; font-size:32.8209px;">SA de 9:00 a 13:00</tspan></text>
<text transform="matrix(1 0 0 1 2150.3232 2717.3916)"><tspan x="0" y="0" class="st10" style="font-family:'CaviarDreams'; font-size:32.8209px;">Venta telefónica:</tspan><tspan x="0" y="39.38" class="st10" style="font-family:'CaviarDreams'; font-size:32.8209px;">0810 333 8700</tspan><tspan x="0" y="78.77" class="st10" style="font-family:'CaviarDreams'; font-size:32.8209px;">LU-VI de 8:00 a 20:00</tspan><tspan x="0" y="118.16" class="st10" style="font-family:'CaviarDreams'; font-size:32.8209px;">SA-DO-Feriados 9:00 a 21:00</tspan></text>
<path class="st11" d="M1845.74,1884h-291.48c-9.94,0-18-8.06-18-18v-291.48c0-9.94,8.06-18,18-18h291.48c9.94,0,18,8.06,18,18V1866
	C1863.74,1875.94,1855.68,1884,1845.74,1884z"/>
<path class="st11" d="M2224.04,1884h-291.48c-9.94,0-18-8.06-18-18v-291.48c0-9.94,8.06-18,18-18h291.48c9.94,0,18,8.06,18,18V1866
	C2242.04,1875.94,2233.98,1884,2224.04,1884z"/>
<path class="st11" d="M2595.99,1884h-291.48c-9.94,0-18-8.06-18-18v-291.48c0-9.94,8.06-18,18-18h291.48c9.94,0,18,8.06,18,18V1866
	C2613.99,1875.94,2605.93,1884,2595.99,1884z"/>
<line class="st12" x1="1512.35" y1="1390.72" x2="2637" y2="1390.72"/>
<line class="st12" x1="1512.35" y1="2177.32" x2="2637" y2="2177.32"/>
<text transform="matrix(1 0 0 1 1731.688 1493.6787)" class="st13" style="fill:#6EB79C; font-size:77.3605px;">Ofertas Pitucas</text>
<g>
	<text transform="matrix(1 0 0 1 1631.4746 2031.0059)" class="st13" style="fill:#6EB79C; font-size:77.3605px;">ver más pituqueadas</text>
</g>
<g>
	<rect x="1717" y="564" width="82" height="13"/>
	<rect x="1717" y="545" width="82" height="13"/>
	<rect x="1717" y="527" width="82" height="13"/>
</g>
<g>
	<g>
		<g>
			<path class="st11" d="M1561.36,582.85c-1.96,2.68-3.08,5.8-3.64,8.95c-0.26,1.58-0.42,3.17-0.37,4.77
				c0.02,0.8-0.01,1.59,0.1,2.38c0.1,0.79,0.1,1.59,0.28,2.37c0.15,0.78,0.27,1.57,0.43,2.35l0.59,2.32
				c0.19,0.77,0.5,1.52,0.74,2.28c0.26,0.76,0.51,1.52,0.81,2.23c0.29,0.72,0.63,1.42,1,2.2c0.36,0.77,0.7,1.59,0.99,2.41
				c0.59,1.63,1.04,3.26,1.43,4.89l-1.12-1.09c2.7,0.58,5.6,0.86,8.43,1.07c2.85,0.18,5.71,0.15,8.56-0.05
				c2.84-0.25,5.66-0.73,8.43-1.49c2.76-0.79,5.39-1.98,7.94-3.44c-2.18,1.96-4.73,3.57-7.48,4.76c-2.76,1.12-5.67,1.95-8.62,2.41
				c-2.96,0.46-5.95,0.63-8.94,0.57c-1.49-0.02-2.99-0.1-4.47-0.27c-1.5-0.15-2.95-0.35-4.49-0.66l-0.88-0.17l-0.24-0.92
				c-0.42-1.57-0.84-3.13-1.34-4.62c-0.48-1.48-1.21-2.84-1.88-4.51c-1.11-3.26-2.04-6.53-2.3-9.97c-0.12-0.84-0.08-1.71-0.11-2.56
				c-0.05-0.85,0.04-1.71,0.09-2.57c0.13-1.71,0.48-3.39,0.93-5.04C1557.24,588.2,1558.86,585.07,1561.36,582.85z"/>
		</g>
		<g>
			<path class="st11" d="M1576.12,589.14c-1.78,0.25-3.64,0.02-5.4-0.46c-0.45-0.09-0.88-0.26-1.31-0.41
				c-0.43-0.16-0.87-0.29-1.29-0.47c-0.82-0.4-1.7-0.72-2.48-1.21c-3.21-1.79-6.08-4.19-8.53-6.91l-0.94-1.01l-0.85-1.08l-1.7-2.16
				c-1.04-1.5-2.07-3.01-3.01-4.57c-0.87-1.59-1.8-3.16-2.63-4.78c-0.79-1.63-1.53-3.29-2.29-4.93l-0.36-0.78l0.52-0.67
				c1.89-2.41,3.95-4.39,6.24-6.23c2.26-1.84,4.74-3.41,7.33-4.71c1.28-0.7,2.65-1.2,3.99-1.74c1.39-0.42,2.74-0.96,4.17-1.2
				c2.8-0.71,5.7-0.84,8.53-0.78c-2.8,0.52-5.56,1.04-8.16,2.06c-1.32,0.42-2.57,1.05-3.85,1.58c-1.22,0.66-2.46,1.25-3.63,1.99
				c-2.36,1.42-4.58,3.06-6.65,4.86l-1.51,1.4c-0.48,0.49-0.97,0.97-1.44,1.46c-0.94,0.97-1.88,2.03-2.64,3.04l0.16-1.45
				c0.75,1.59,1.53,3.17,2.26,4.76c0.78,1.57,1.65,3.09,2.47,4.64c0.42,0.77,0.92,1.48,1.37,2.23c0.46,0.74,0.9,1.5,1.38,2.23
				l1.52,2.12l0.76,1.06l0.83,1c2.14,2.75,4.66,5.18,7.48,7.2c0.69,0.53,1.46,0.93,2.19,1.41c0.77,0.4,1.54,0.83,2.35,1.15
				C1572.62,588.51,1574.33,589.03,1576.12,589.14z"/>
		</g>
		<g>
			<path class="st11" d="M1558.68,551.54c-1.19-0.38-2.12-1.35-2.88-2.32c-0.41-0.48-0.71-1.03-1.07-1.55
				c-0.3-0.55-0.62-1.09-0.9-1.65c-1.1-2.25-1.85-4.63-2.48-7.03c-0.29-1.2-0.61-2.4-0.8-3.62c-0.21-1.21-0.46-2.43-0.61-3.65
				c-0.34-2.44-0.53-4.89-0.73-7.34l-0.07-0.92l0.79-0.45c2.17-1.24,4.3-2.28,6.55-3.19c2.25-0.88,4.53-1.68,6.88-2.24
				c2.33-0.62,4.74-0.96,7.13-1.15c2.4-0.16,4.82-0.04,7.17,0.37c-2.38,0.25-4.69,0.53-6.96,1.08c-2.27,0.53-4.5,1.16-6.68,1.94
				c-2.17,0.8-4.33,1.62-6.42,2.61c-2.08,0.96-4.2,2-6.1,3.15l0.71-1.37c0.17,2.4,0.31,4.8,0.57,7.18c0.18,2.39,0.54,4.76,0.88,7.12
				c0.41,2.34,0.82,4.71,1.55,6.96c0.17,0.57,0.38,1.12,0.57,1.68c0.24,0.53,0.45,1.1,0.72,1.62c0.26,0.53,0.56,1.04,0.91,1.52
				C1557.76,550.77,1558.15,551.23,1558.68,551.54z"/>
		</g>
		<g>
			<path class="st11" d="M1578.74,518.32c-1.02-1.41-1.69-3.06-2.2-4.74c-0.47-1.7-0.77-3.47-0.78-5.26
				c-0.04-1.79,0.13-3.6,0.57-5.35c0.17-0.89,0.49-1.73,0.77-2.59c0.3-0.85,0.7-1.66,1.06-2.48l0.31-0.71l0.83-0.1
				c1.71-0.21,3.37-0.35,5.05-0.42c1.68-0.07,3.37-0.09,5.06,0.01c1.69,0.08,3.37,0.24,5.05,0.53c1.67,0.32,3.33,0.7,4.89,1.37
				c-1.69-0.03-3.34-0.01-4.98,0.09c-1.64,0.06-3.28,0.22-4.91,0.34l-4.89,0.49c-1.62,0.18-3.27,0.35-4.86,0.57l1.14-0.81
				c-0.67,1.45-1.32,2.92-1.75,4.46c-0.5,1.52-0.76,3.11-0.98,4.72c-0.19,1.61-0.22,3.25-0.11,4.9
				C1578.08,514.98,1578.34,516.64,1578.74,518.32z"/>
		</g>
		<g>
			<path class="st11" d="M1588.13,519.11c-0.4-1.41-0.47-2.92-0.35-4.4c0.01-0.75,0.18-1.48,0.28-2.22
				c0.17-0.72,0.33-1.46,0.53-2.18c0.86-2.87,2.22-5.59,3.91-8.05c0.8-1.27,1.75-2.42,2.68-3.6c0.96-1.14,2.01-2.2,3.02-3.29
				c1.08-1.01,2.15-2.05,3.28-3.02l3.47-2.78l0.53-0.42l0.71,0.17c3.29,0.79,6.41,1.86,9.53,3.02c3.1,1.21,6.15,2.57,9.07,4.22
				c2.9,1.66,5.72,3.56,8.09,5.99c1.17,1.22,2.24,2.56,3.04,4.06c0.8,1.49,1.3,3.16,1.31,4.81c-0.74-3.25-2.94-5.75-5.39-7.73
				c-1.22-1.01-2.55-1.91-3.94-2.71c-1.37-0.83-2.78-1.59-4.24-2.27c-2.89-1.39-5.89-2.59-8.94-3.66c-3.03-1.1-6.17-2.02-9.23-2.85
				l1.23-0.25l-3.38,2.63l-3.23,2.78c-2.04,1.96-4.06,3.97-5.78,6.21c-0.91,1.09-1.65,2.29-2.45,3.46l-1.05,1.84
				c-0.33,0.63-0.6,1.28-0.92,1.91c-0.28,0.65-0.52,1.32-0.78,1.98c-0.18,0.68-0.44,1.36-0.57,2.06
				C1588.23,516.21,1588.02,517.65,1588.13,519.11z"/>
		</g>
		<g>
			<path class="st11" d="M1632.78,503.52c0.9-1.35,2.16-2.44,3.53-3.33c1.37-0.9,2.89-1.59,4.48-2.06c1.59-0.43,3.25-0.76,4.9-0.76
				c0.83-0.07,1.65,0.04,2.48,0.07c0.82,0.08,1.63,0.22,2.44,0.36l-0.66,0.05c0.22-0.07,0.5-0.09,0.74-0.04l0.11,0.03l0.04,0.01
				c0.06,0.02,0.11,0.04,0.17,0.07c0.05,0.02,0.11,0.06,0.15,0.08l0.04,0.03l0.15,0.12l0.14,0.13c0.08,0.08,0.12,0.13,0.17,0.2
				l0.25,0.32c0.15,0.2,0.28,0.4,0.41,0.6c0.25,0.4,0.5,0.79,0.72,1.19c0.45,0.8,0.89,1.59,1.28,2.41c0.8,1.63,1.51,3.3,2.07,5.07
				c-1.34-1.28-2.53-2.64-3.69-4.01c-0.59-0.68-1.14-1.38-1.7-2.06l-0.83-1.01l-0.41-0.46l-0.18-0.19
				c-0.02-0.01-0.06-0.06-0.06-0.05c0.01,0.01-0.01,0,0.02,0.02c0.03,0.02,0.06,0.05,0.09,0.07l0.02,0.01
				c0.03,0.02,0.09,0.05,0.13,0.08c0.05,0.02,0.1,0.04,0.15,0.06l0.15,0.04c0.23,0.05,0.51,0.04,0.73-0.04l-0.66,0.05
				c-1.48-0.13-2.94-0.25-4.4-0.22c-1.47-0.01-2.92,0.16-4.37,0.36c-1.45,0.23-2.88,0.59-4.33,1.03
				C1635.63,502.22,1634.2,502.77,1632.78,503.52z"/>
		</g>
		<g>
			<path class="st11" d="M1580.54,551.54c-2.39-1.72-4.34-4.06-5.87-6.64c-1.52-2.58-2.65-5.45-3.22-8.44
				c-0.17-0.74-0.21-1.5-0.32-2.26l-0.14-1.13l-0.03-1.14c-0.02-0.76-0.04-1.52-0.02-2.28l0.22-2.27l0.11-1.13l0.22-1.11
				c0.15-0.74,0.3-1.49,0.47-2.22c0.39-1.46,0.91-2.87,1.37-4.31l0.28-0.88l0.97-0.06c2.07-0.13,4.08-0.09,6.12-0.05
				c2.03,0.05,4.07,0.24,6.1,0.5c2.02,0.31,4.06,0.67,6.01,1.38c0.97,0.35,1.94,0.77,2.81,1.39c0.86,0.59,1.62,1.48,1.78,2.49
				c-0.41-0.95-1.26-1.5-2.12-1.89c-0.88-0.38-1.83-0.61-2.79-0.79c-1.92-0.33-3.89-0.47-5.86-0.51c-1.97-0.08-3.95-0.01-5.93,0.04
				c-1.97,0.05-3.97,0.2-5.91,0.33l1.25-0.94c-0.39,1.35-0.86,2.68-1.2,4.03c-0.13,0.69-0.28,1.37-0.43,2.05l-0.23,1.02l-0.12,1.04
				l-0.25,2.07l-0.06,2.08l-0.03,1.04l0.07,1.04c0.06,0.69,0.05,1.39,0.17,2.08c0.3,2.77,1.09,5.48,2.16,8.1
				C1577.25,546.77,1578.69,549.27,1580.54,551.54z"/>
		</g>
		<g>
			<path class="st11" d="M1575.37,572.82c0,2.4,0.3,4.77,0.71,7.09c0.43,2.32,0.98,4.61,1.69,6.84c0.72,2.23,1.54,4.42,2.52,6.54
				c0.44,1.08,1.02,2.1,1.53,3.14l1.7,3.06l-0.62-0.58c1.31,0.57,2.88,1.06,4.38,1.45c1.53,0.38,3.06,0.74,4.63,0.96
				c3.13,0.44,6.3,0.7,9.49,0.57c0.8,0,1.59-0.09,2.39-0.12c0.8-0.04,1.6-0.1,2.39-0.22c0.79-0.11,1.59-0.2,2.39-0.29l2.37-0.44
				c1.6-0.25,3.15-0.71,4.73-1.07c0.8-0.16,1.56-0.46,2.35-0.68l2.37-0.69c-1.44,0.77-2.89,1.58-4.4,2.26l-2.3,0.94
				c-0.39,0.15-0.77,0.32-1.16,0.46l-1.19,0.37l-2.39,0.73c-0.81,0.19-1.62,0.37-2.44,0.55c-0.81,0.2-1.64,0.33-2.47,0.44
				c-0.83,0.1-1.66,0.27-2.49,0.33c-3.34,0.29-6.73,0.25-10.07-0.22c-1.67-0.21-3.33-0.55-4.98-0.96c-1.65-0.47-3.21-0.96-4.89-1.73
				l-0.42-0.19l-0.2-0.38c-0.57-1.09-1.19-2.15-1.7-3.26c-0.49-1.13-1.04-2.22-1.45-3.38l-0.66-1.72l-0.55-1.76
				c-0.38-1.16-0.63-2.37-0.93-3.55c-0.5-2.39-0.83-4.82-0.91-7.25C1574.73,577.62,1574.84,575.17,1575.37,572.82z"/>
		</g>
		<g>
			<path class="st11" d="M1623.29,596.25c2.51,1.23,5.24,1.8,7.95,2.07c2.72,0.25,5.44,0.08,8.1-0.32l1.99-0.36
				c0.66-0.15,1.31-0.34,1.97-0.5c1.32-0.29,2.59-0.79,3.88-1.19c1.27-0.45,2.51-1.02,3.77-1.53l3.67-1.77l-0.39,0.29
				c1.06-1.18,2.09-2.62,3.01-4.02c0.93-1.42,1.76-2.9,2.46-4.43c1.37-3.06,2.38-6.32,2.43-9.65c0.06-1.66-0.09-3.32-0.46-4.95
				c-0.38-1.63-0.97-3.22-1.73-4.74c-1.56-3.04-3.8-5.77-6.33-8.25c2.99,1.91,5.66,4.41,7.71,7.45c0.97,1.55,1.83,3.2,2.39,4.98
				c0.54,1.78,0.86,3.64,0.93,5.51c0.1,3.75-0.78,7.47-2.28,10.84c-1.51,3.39-3.44,6.47-5.99,9.27l-0.18,0.19l-0.21,0.1l-3.89,1.81
				c-1.35,0.48-2.68,1.02-4.05,1.44c-2.75,0.82-5.56,1.46-8.44,1.66c-2.86,0.21-5.76,0.08-8.56-0.53
				C1628.26,598.99,1625.52,597.97,1623.29,596.25z"/>
		</g>
		<g>
			<path class="st11" d="M1597.8,558.66c-2.21-2.41-3.64-5.5-4.57-8.67c-0.92-3.2-1.21-6.57-1.07-9.92c0.06-0.83,0.15-1.67,0.23-2.5
				c0.08-0.83,0.29-1.64,0.42-2.47c0.25-1.66,0.77-3.25,1.24-4.85c0.5-1.59,1.19-3.11,1.77-4.66c0.7-1.5,1.49-2.96,2.24-4.44
				l0.47-0.93l1.04,0.18c2.72,0.48,5.3,1.14,7.87,2c2.57,0.83,5.08,1.87,7.47,3.14c2.4,1.27,4.68,2.82,6.61,4.76
				c1.93,1.92,3.45,4.36,3.9,7c-1.03-2.46-2.76-4.44-4.8-5.99c-1.03-0.77-2.09-1.48-3.21-2.1c-1.13-0.61-2.29-1.16-3.46-1.68
				c-2.37-1-4.82-1.83-7.31-2.53c-2.48-0.67-5.05-1.28-7.53-1.68l1.51-0.74l-2.1,4.24c-0.57,1.46-1.25,2.89-1.74,4.37
				c-0.99,2.97-1.83,5.99-2.18,9.1c-0.36,3.1-0.36,6.25,0.14,9.36C1595.25,552.75,1596.19,555.84,1597.8,558.66z"/>
		</g>
		<g>
			<path class="st11" d="M1598.49,604.36c-0.7,3.39-0.67,6.9,0.31,10.07c0.93,3.18,2.96,5.88,5.59,7.75
				c2.64,1.87,5.74,3.12,8.99,3.86c3.24,0.79,6.6,1.15,9.98,1.32l-0.67,0.13c2.84-1.29,5.65-2.95,8.28-4.71
				c2.66-1.77,5.12-3.81,7.31-6.08c2.12-2.31,4-4.91,4.96-7.91c0.5-1.49,0.75-3.06,0.78-4.66c-0.01-1.6-0.27-3.21-0.69-4.8
				c0.71,1.48,1.25,3.07,1.5,4.75c0.22,1.67,0.13,3.4-0.2,5.08c-0.7,3.38-2.48,6.43-4.62,9.06c-2.15,2.64-4.72,4.88-7.43,6.86
				c-2.73,1.99-5.59,3.67-8.69,5.15l-0.3,0.14l-0.37-0.02c-3.53-0.18-7.07-0.63-10.55-1.53c-0.87-0.24-1.72-0.53-2.58-0.81
				c-0.84-0.35-1.7-0.62-2.51-1.05c-1.66-0.74-3.23-1.74-4.65-2.91c-1.42-1.18-2.69-2.56-3.64-4.15c-0.95-1.59-1.6-3.33-1.95-5.11
				C1596.7,611.22,1597.14,607.57,1598.49,604.36z"/>
		</g>
		<g>
			<path class="st11" d="M1644.46,599.32c3.55,0.47,7.12,0.45,10.59-0.05c3.48-0.46,6.87-1.37,10.03-2.77
				c3.13-1.43,6.19-3.09,8.78-5.38c1.4-1,2.56-2.3,3.81-3.48c1.2-1.23,2.22-2.65,3.37-3.94l-0.29,0.73c0.35-3.25,0.4-6.64,0.34-9.96
				c-0.05-3.34-0.36-6.66-0.87-9.95c-0.57-3.27-1.35-6.52-2.71-9.54c-1.29-3.05-3.23-5.84-5.84-8.04c2.99,1.67,5.42,4.37,7.13,7.39
				c1.74,3.03,2.89,6.37,3.68,9.74c0.81,3.38,1.21,6.84,1.42,10.29c0.19,3.47,0.13,6.89-0.18,10.4l-0.04,0.43l-0.26,0.3l-1.78,2.12
				l-0.9,1.05l-0.45,0.53l-0.5,0.48c-1.36,1.25-2.61,2.63-4.15,3.69c-0.75,0.54-1.47,1.14-2.25,1.63l-2.39,1.42
				c-0.78,0.51-1.65,0.83-2.48,1.24c-0.84,0.39-1.68,0.78-2.57,1.04c-0.88,0.28-1.74,0.62-2.63,0.85l-2.69,0.63l-2.72,0.39
				c-0.91,0.11-1.83,0.13-2.73,0.19C1651.54,600.85,1647.87,600.46,1644.46,599.32z"/>
		</g>
		<g>
			<path class="st11" d="M1675.65,533.17c1.49-0.28,3.04,0.08,4.49,0.54l1.08,0.4l1.04,0.49c0.71,0.31,1.35,0.72,2.01,1.11
				c2.6,1.62,4.88,3.67,7.03,5.83c2.05,2.23,4.02,4.55,5.75,7.02c0.84,1.25,1.75,2.46,2.54,3.74c0.81,1.27,1.56,2.57,2.35,3.85
				l0.29,0.48l-0.11,0.51c-0.32,1.44-0.76,2.53-1.28,3.71c-0.52,1.15-1.16,2.22-1.82,3.27c-1.33,2.1-2.93,3.98-4.64,5.72l-1.31,1.27
				c-0.46,0.4-0.93,0.79-1.39,1.18c-0.91,0.8-1.91,1.5-2.88,2.2c-0.99,0.69-2.02,1.32-3.04,1.94c-1.05,0.59-2.12,1.13-3.18,1.67
				c0.92-0.78,1.83-1.54,2.75-2.28c0.87-0.82,1.79-1.55,2.63-2.37c1.7-1.63,3.34-3.3,4.81-5.09c1.47-1.79,2.81-3.67,3.95-5.64
				c0.55-0.99,1.07-2,1.49-3.04c0.23-0.51,0.42-1.03,0.6-1.55c0.17-0.5,0.34-1.09,0.41-1.48l0.18,0.99
				c-0.78-1.25-1.58-2.48-2.33-3.74c-0.76-1.26-1.61-2.45-2.41-3.68c-0.39-0.62-0.83-1.2-1.26-1.79l-1.27-1.79
				c-0.85-1.19-1.8-2.29-2.69-3.44c-1.88-2.22-3.86-4.35-6.09-6.2c-0.58-0.43-1.12-0.93-1.73-1.31l-0.9-0.61l-0.94-0.53
				c-0.31-0.2-0.64-0.33-0.97-0.49c-0.33-0.17-0.66-0.3-1.01-0.41C1677.11,533.39,1676.4,533.19,1675.65,533.17z"/>
		</g>
		<g>
			<path class="st11" d="M1605.74,523.32c0.2-1.05,0.58-2.08,1.07-3.05c0.46-0.98,1.04-1.91,1.66-2.81c1.24-1.8,2.76-3.38,4.38-4.84
				c1.61-1.49,3.41-2.72,5.22-3.94c0.92-0.58,1.88-1.1,2.82-1.65l2.9-1.48l0.36-0.18l0.46,0.08c1.93,0.34,3.65,0.89,5.42,1.52
				c1.74,0.64,3.45,1.38,5.08,2.29c3.26,1.78,6.31,4.06,8.77,6.89c2.48,2.81,4.36,6.15,5.41,9.7c1.05,3.55,1.33,7.26,0.95,10.84
				c-0.42-3.58-1.21-7.05-2.57-10.25c-0.7-1.59-1.54-3.1-2.47-4.54c-0.97-1.42-2.07-2.73-3.25-3.96c-1.18-1.24-2.51-2.33-3.89-3.34
				c-1.37-1.02-2.84-1.93-4.36-2.73c-1.53-0.79-3.09-1.52-4.7-2.14c-1.59-0.62-3.3-1.13-4.88-1.5l0.82-0.1l-2.84,1.28l-2.76,1.43
				c-1.81,1-3.6,2.07-5.26,3.3c-1.68,1.21-3.27,2.55-4.71,4.06C1607.96,519.72,1606.61,521.36,1605.74,523.32z"/>
		</g>
		<g>
			<path class="st11" d="M1640.28,514.53c1.99-1.64,4.19-3.04,6.46-4.29c2.28-1.25,4.64-2.35,7.09-3.25
				c2.44-0.93,4.95-1.68,7.51-2.24c2.55-0.63,5.17-0.92,7.78-1.18l0.77-0.08l0.45,0.68c1.46,2.21,2.48,4.44,3.39,6.8
				c0.89,2.34,1.6,4.75,2.11,7.2c0.97,4.91,1.24,9.97,0.6,14.93c-0.31,2.47-0.76,4.93-1.48,7.31c-0.31,1.2-0.75,2.37-1.13,3.54
				c-0.46,1.15-0.88,2.31-1.42,3.42c-2.03,4.5-4.67,8.68-7.79,12.43c2.43-4.22,4.53-8.58,6.13-13.09c1.61-4.5,2.61-9.18,3.02-13.88
				c0.38-4.71,0.11-9.45-0.86-14.05c-0.48-2.3-1.1-4.58-1.91-6.78c-0.41-1.1-0.86-2.19-1.35-3.25c-0.48-1.05-1.03-2.14-1.58-3.05
				l1.21,0.6c-2.5,0.14-5.01,0.37-7.49,0.79c-2.49,0.37-4.94,0.99-7.39,1.65c-2.44,0.68-4.84,1.53-7.2,2.48
				C1644.85,512.19,1642.52,513.25,1640.28,514.53z"/>
		</g>
		<g>
			<path class="st11" d="M1627.55,626.62c1.63,2.36,4.1,3.86,6.58,5.08c2.53,1.17,5.16,2.08,7.9,2.66c1.34,0.35,2.74,0.53,4.1,0.8
				c1.39,0.15,2.77,0.38,4.16,0.51c1.4,0.1,2.79,0.24,4.19,0.3c1.4,0.03,2.8,0.1,4.2,0.15l-1.05,0.41c1.27-1.3,2.53-2.76,3.7-4.22
				c1.19-1.47,2.33-2.97,3.38-4.53c2.1-3.12,3.99-6.39,5.3-9.88c1.36-3.46,2.11-7.15,1.87-10.85c-0.16-1.84-0.54-3.68-1.22-5.44
				c-0.67-1.77-1.65-3.42-2.74-5.02c1.37,1.36,2.64,2.88,3.6,4.62c0.92,1.75,1.62,3.65,1.97,5.64c0.69,3.98,0.14,8.11-1.08,11.9
				c-1.26,3.8-3.07,7.37-5.27,10.66c-2.18,3.32-4.62,6.36-7.47,9.21l-0.45,0.45l-0.6-0.03c-1.44-0.08-2.89-0.14-4.33-0.25
				c-1.44-0.12-2.88-0.33-4.32-0.49c-1.44-0.2-2.86-0.49-4.29-0.76c-1.41-0.38-2.83-0.67-4.22-1.13l-2.07-0.69l-2.02-0.84
				c-0.68-0.26-1.32-0.63-1.97-0.95c-0.66-0.31-1.28-0.71-1.89-1.1c-1.24-0.76-2.4-1.68-3.45-2.68
				C1629.04,629.1,1628.1,627.95,1627.55,626.62z"/>
		</g>
		<g>
			<path class="st11" d="M1593.84,564.5c0.55-1.55,1.46-2.96,2.47-4.27c1.04-1.29,2.22-2.5,3.57-3.52c1.32-1.04,2.78-1.94,4.33-2.62
				c1.54-0.73,3.18-1.2,4.83-1.6l0.1-0.02l0.12-0.01c1.68-0.08,3.28-0.05,4.91,0.06c1.62,0.12,3.25,0.29,4.85,0.62
				c1.61,0.31,3.2,0.72,4.73,1.32c1.52,0.62,3.02,1.36,4.25,2.44c-1.55-0.49-3.07-0.81-4.62-1.02c-1.53-0.24-3.1-0.32-4.64-0.42
				c-1.55-0.07-3.11-0.1-4.66-0.1c-1.55,0-3.13,0.02-4.63,0.1l0.22-0.03c-1.47,0.34-2.94,0.72-4.34,1.28
				c-1.43,0.51-2.78,1.2-4.12,1.94c-1.33,0.76-2.61,1.63-3.83,2.61C1596.11,562.22,1594.95,563.3,1593.84,564.5z"/>
		</g>
		<g>
			<path class="st11" d="M1641.2,550.93c-0.1-1.84-0.7-3.5-1.75-4.84c-1-1.37-2.33-2.46-3.72-3.45c-1.42-0.97-2.94-1.8-4.5-2.56
				c-1.56-0.74-3.21-1.44-4.79-1.97l0.88,0.01c-0.85,0.32-1.72,0.57-2.56,0.9l-1.23,0.55l-0.62,0.27l-0.58,0.33l-1.17,0.65
				l-1.1,0.76l-0.55,0.38l-0.51,0.44c-0.33,0.3-0.71,0.55-1.01,0.88l-0.95,0.96l-0.86,1.05c-0.56,0.71-1.08,1.47-1.52,2.28
				c-0.94,1.6-1.63,3.36-2.09,5.24c-0.23-1.95,0.1-3.95,0.71-5.85c0.65-1.89,1.62-3.73,2.95-5.29c0.31-0.41,0.68-0.76,1.03-1.14
				l0.54-0.55l0.59-0.5c0.4-0.33,0.79-0.66,1.2-0.97l1.29-0.83l0.65-0.41l0.69-0.34l1.38-0.67c0.94-0.38,1.9-0.7,2.86-1.03
				l0.43-0.15l0.46,0.16c1.84,0.64,3.5,1.41,5.16,2.33c1.64,0.91,3.21,1.98,4.63,3.25c1.42,1.26,2.7,2.76,3.53,4.52
				C1641.53,547.12,1641.75,549.18,1641.2,550.93z"/>
		</g>
		<g>
			<path class="st11" d="M1661.34,566.08c0.98-1.64,1.37-3.5,1.73-5.31l0.21-1.38l0.14-1.39c0.11-0.92,0.12-1.85,0.14-2.78
				c0.06-0.92,0.01-1.85,0-2.78c-0.01-0.46-0.01-0.93-0.04-1.39l-0.1-1.39c-0.07-1.85-0.34-3.7-0.54-5.55
				c-0.48-3.7-1.15-7.38-1.9-11.05c-0.45-1.82-0.74-3.68-1.2-5.5c-0.47-1.82-0.86-3.67-1.3-5.5l0.56,0.65
				c0-0.01-0.28-0.11-0.45-0.14c-0.2-0.05-0.42-0.09-0.64-0.12c-0.45-0.05-0.92-0.08-1.4-0.06c-0.95,0.03-1.93,0.15-2.91,0.33
				c-0.98,0.18-1.95,0.44-2.93,0.71c-0.97,0.29-1.95,0.6-2.93,0.93c0.86-0.56,1.74-1.12,2.66-1.6c0.92-0.49,1.87-0.92,2.86-1.29
				c0.98-0.39,2.02-0.66,3.1-0.83c0.54-0.09,1.1-0.13,1.67-0.15c0.29,0.01,0.58,0.01,0.88,0.05c0.33,0.05,0.55,0.06,1.02,0.25
				l0.39,0.15l0.16,0.5c0.6,1.81,1.24,3.62,1.79,5.45c0.55,1.83,1.04,3.69,1.5,5.55c0.46,1.86,0.8,3.76,1.17,5.64
				c0.3,1.9,0.55,3.81,0.76,5.73c0.32,3.85,0.36,7.74-0.16,11.6c-0.15,0.96-0.29,1.92-0.54,2.87c-0.12,0.47-0.2,0.95-0.35,1.42
				l-0.46,1.39c-0.33,0.92-0.69,1.82-1.18,2.67C1662.6,564.61,1662.03,565.42,1661.34,566.08z"/>
		</g>
		<g>
			<path class="st11" d="M1593.84,550.23c-1.18-0.4-2.35-0.82-3.51-1.26c-1.16-0.44-2.31-0.9-3.47-1.35l0.83-0.1
				c-2.7,2.9-4.98,6.38-6.09,10.02c-0.51,1.83-0.75,3.69-0.5,5.5c0.26,1.8,0.94,3.53,1.98,5.1c0.54,0.77,1.1,1.54,1.79,2.22
				c0.61,0.74,1.38,1.37,2.09,2.04c1.54,1.23,3.14,2.43,4.88,3.46c3.45,2.13,7.18,3.88,10.94,5.69c-4.1-0.76-8.13-1.99-11.97-3.79
				c-3.81-1.8-7.55-4.26-10.16-7.98c-1.3-1.84-2.24-4.05-2.48-6.36c-0.27-2.3,0.05-4.64,0.82-6.73c0.74-2.12,1.88-4.01,3.19-5.72
				c1.32-1.72,2.81-3.22,4.52-4.58l0.43-0.34l0.39,0.24c1.06,0.64,2.12,1.28,3.18,1.93C1591.76,548.86,1592.8,549.54,1593.84,550.23
				z"/>
		</g>
		<g>
			<path class="st11" d="M1605.74,570.98c-2.26-0.05-4.43-0.52-6.55-1.15c-2.11-0.66-4.17-1.52-6.12-2.62
				c-1.95-1.1-3.8-2.45-5.36-4.14c-0.78-0.85-1.46-1.81-1.99-2.84c-0.51-1.04-0.88-2.18-0.84-3.32c1.19,1.9,2.76,3.19,4.41,4.41
				c1.67,1.19,3.44,2.25,5.26,3.29c1.82,1.04,3.68,2.03,5.55,3.06C1601.98,568.7,1603.86,569.74,1605.74,570.98z"/>
		</g>
		<g>
			<path class="st11" d="M1645.55,564.25c-0.22-2.17-0.51-4.32-0.91-6.44c-0.2-1.06-0.43-2.1-0.72-3.11
				c-0.3-0.99-0.7-2.01-1.22-2.63l-0.06-0.08c0.02,0.04-0.01,0.01-0.03,0c-0.01-0.02-0.05-0.04-0.08-0.06
				c-0.06-0.04-0.12-0.08-0.2-0.12c-0.14-0.08-0.33-0.12-0.51-0.17c-0.19-0.03-0.39-0.05-0.59-0.07l-0.63,0.02
				c-0.87,0.12-1.76,0.33-2.64,0.69c-1.76,0.68-3.47,1.65-5.09,2.74l-1.23,0.8l-1.2,0.87l-1.2,0.87l-1.16,0.93
				c-1.57,1.22-3.06,2.54-4.59,3.81l-0.13,0.1l-0.13,0.07c-1.58,0.88-3.16,1.79-4.73,2.71c-1.56,0.93-3.14,1.84-4.68,2.78
				c-1.54,0.95-3.07,1.91-4.53,2.93c-0.72,0.51-1.45,1.02-2.1,1.56c-0.32,0.26-0.63,0.54-0.86,0.79c-0.12,0.12-0.2,0.25-0.22,0.28
				c-0.02,0.02,0.02-0.02,0.02-0.14c0.03-0.16-0.03-0.49-0.23-0.7l0.09,1.62c-1.09,1.71-1.84,3.99-1.44,5.91
				c0.35,1.98,2,3.56,3.99,4.63c2.03,1.04,4.33,1.71,6.67,2.19c2.35,0.47,4.75,0.77,7.17,1.01c-2.42,0.17-4.87,0.22-7.32,0.02
				c-2.45-0.21-4.92-0.62-7.3-1.61c-1.18-0.51-2.34-1.17-3.34-2.12c-0.99-0.94-1.8-2.19-2.15-3.58c-0.37-1.39-0.33-2.83-0.05-4.16
				c0.32-1.35,0.77-2.54,1.53-3.79l0.09,1.62c-0.34-0.39-0.46-0.96-0.41-1.34c0.04-0.35,0.15-0.61,0.24-0.79
				c0.19-0.38,0.39-0.62,0.57-0.84c0.37-0.44,0.74-0.78,1.11-1.12c0.74-0.65,1.49-1.24,2.25-1.79c1.53-1.1,3.08-2.11,4.65-3.09
				c1.57-0.98,3.14-1.95,4.74-2.86c1.6-0.92,3.2-1.81,4.83-2.69l-0.25,0.17c1.58-1.3,3.14-2.62,4.82-3.8l1.24-0.91l1.28-0.86
				l1.28-0.86l1.34-0.8c1.79-1.04,3.68-1.97,5.73-2.62c1.01-0.35,2.12-0.54,3.26-0.57l0.88,0.05c0.3,0.05,0.6,0.11,0.9,0.2
				c0.3,0.12,0.6,0.21,0.89,0.41c0.14,0.08,0.29,0.19,0.42,0.31c0.07,0.06,0.13,0.11,0.2,0.19c0.07,0.08,0.13,0.13,0.22,0.28
				l-0.06-0.08c0.78,1.14,1.01,2.26,1.23,3.36c0.19,1.11,0.31,2.21,0.39,3.3C1645.71,559.89,1645.7,562.07,1645.55,564.25z"/>
		</g>
	</g>
	<g>
		<text transform="matrix(1 0 0 1 1593.6938 594.3842)" class="st5 st13 st14">s</text>
		<text transform="matrix(1 0 0 1 1577.1353 595.037)" class="st13 st15">m</text>
	</g>
</g>
</svg>
